<?xml version="1.0" encoding="UTF-8" standalone="no"?>
<!DOCTYPE svg PUBLIC "-//W3C//DTD SVG 1.1//EN"
 "http://www.w3.org/Graphics/SVG/1.1/DTD/svg11.dtd">
<!-- Generated by graphviz version 2.43.0 (0)
 -->
<!-- Title: %3 Pages: 1 -->
<svg width="1105pt" height="693pt"
 viewBox="0.00 0.00 1105.00 692.74" xmlns="http://www.w3.org/2000/svg" xmlns:xlink="http://www.w3.org/1999/xlink">
<g id="graph0" class="graph" transform="scale(1 1) rotate(0) translate(4 688.74)">
<title>%3</title>
<polygon fill="white" stroke="transparent" points="-4,4 -4,-688.74 1101,-688.74 1101,4 -4,4"/>
<g id="clust1" class="cluster">
<title>cluster_linkedin</title>
<polygon fill="none" stroke="lightblue" points="436,-601.74 436,-676.74 588,-676.74 588,-601.74 436,-601.74"/>
<text text-anchor="middle" x="512" y="-661.54" font-family="Times,serif" font-size="14.00">www.LinkedIn.com</text>
</g>
<g id="clust2" class="cluster">
<title>cluster_exported</title>
<polygon fill="none" stroke="lightblue" points="8,-293.5 8,-559.87 539,-559.87 539,-293.5 8,-293.5"/>
<text text-anchor="middle" x="273.5" y="-544.67" font-family="Times,serif" font-size="14.00">LinkedIn Exported Info</text>
</g>
<g id="clust3" class="cluster">
<title>cluster_web</title>
<polygon fill="none" stroke="lightblue" points="547,-484.87 547,-559.87 693,-559.87 693,-484.87 547,-484.87"/>
<text text-anchor="middle" x="620" y="-544.67" font-family="Times,serif" font-size="14.00">LinkedIn Web Info</text>
</g>
<g id="clust4" class="cluster">
<title>cluster_external</title>
<polygon fill="linen" stroke="orange" points="701,-389 701,-568.74 1089,-568.74 1089,-389 701,-389"/>
<text text-anchor="middle" x="895" y="-553.54" font-family="Times,serif" font-size="14.00">External Sources</text>
</g>
<g id="clust5" class="cluster">
<title>cluster_consumers</title>
<polygon fill="lightgreen" stroke="green" points="369,-102 369,-177 1013,-177 1013,-102 369,-102"/>
<text text-anchor="middle" x="691" y="-161.8" font-family="Times,serif" font-size="14.00">Address Book Consumers</text>
</g>
<g id="clust6" class="cluster">
<title>cluster_mtdt</title>
<polygon fill="#ffec8b" stroke="#ffec8b" points="293,-8 293,-83 1019,-83 1019,-8 293,-8"/>
<text text-anchor="middle" x="656" y="-67.8" font-family="Times,serif" font-size="14.00">MTDT: Mail Templating Distribution &amp; Tracking</text>
</g>
<!-- LinkedIn -->
<g id="node1" class="node">
<title>LinkedIn</title>
<ellipse fill="#b2dfee" stroke="black" cx="512" cy="-627.74" rx="51.19" ry="18"/>
<text text-anchor="middle" x="512" y="-624.04" font-family="Times,serif" font-size="14.00">LinkedIn</text>
</g>
<!-- Export.zip -->
<g id="node2" class="node">
<title>Export.zip</title>
<ellipse fill="lightblue" stroke="black" cx="366" cy="-510.87" rx="59.29" ry="18"/>
<text text-anchor="middle" x="366" y="-507.17" font-family="Times,serif" font-size="14.00">Export.zip</text>
</g>
<!-- LinkedIn&#45;&gt;Export.zip -->
<g id="edge5" class="edge">
<title>LinkedIn&#45;&gt;Export.zip</title>
<path fill="none" stroke="blue" d="M466.27,-619.55C446.26,-614.51 423.62,-606 407,-591.74 390.78,-577.83 380.18,-555.91 373.82,-538.55"/>
<polygon fill="blue" stroke="blue" points="377.09,-537.3 370.56,-528.95 370.47,-539.55 377.09,-537.3"/>
<text text-anchor="middle" x="490.5" y="-580.54" font-family="Times,serif" font-size="14.00">LinkedInExportProcess</text>
</g>
<!-- ContactInfo -->
<g id="node8" class="node">
<title>ContactInfo</title>
<ellipse fill="lightskyblue" stroke="black" cx="620" cy="-510.87" rx="64.99" ry="18"/>
<text text-anchor="middle" x="620" y="-507.17" font-family="Times,serif" font-size="14.00">ContactInfo</text>
</g>
<!-- LinkedIn&#45;&gt;ContactInfo -->
<g id="edge9" class="edge">
<title>LinkedIn&#45;&gt;ContactInfo</title>
<path fill="none" stroke="blue" d="M545.46,-613.82C556.77,-608.28 568.84,-600.93 578,-591.74 592.98,-576.71 603.86,-555.23 610.79,-538.33"/>
<polygon fill="blue" stroke="blue" points="614.06,-539.58 614.42,-529 607.53,-537.05 614.06,-539.58"/>
<text text-anchor="middle" x="628.5" y="-580.54" font-family="Times,serif" font-size="14.00">WebAccess</text>
</g>
<!-- ExportedData -->
<g id="node3" class="node">
<title>ExportedData</title>
<ellipse fill="lightblue" stroke="black" cx="281" cy="-415" rx="75.29" ry="18"/>
<text text-anchor="middle" x="281" y="-411.3" font-family="Times,serif" font-size="14.00">ExportedData</text>
</g>
<!-- Export.zip&#45;&gt;ExportedData -->
<g id="edge1" class="edge">
<title>Export.zip&#45;&gt;ExportedData</title>
<path fill="none" stroke="black" d="M350.8,-493.09C337.59,-478.5 318.27,-457.16 303.3,-440.63"/>
<polygon fill="black" stroke="black" points="305.66,-438.02 296.35,-432.95 300.47,-442.72 305.66,-438.02"/>
<text text-anchor="middle" x="346" y="-454.8" font-family="Times,serif" font-size="14.00">unzip</text>
</g>
<!-- Connections.csv -->
<g id="node4" class="node">
<title>Connections.csv</title>
<ellipse fill="lightblue" stroke="black" cx="445" cy="-319.5" rx="85.59" ry="18"/>
<text text-anchor="middle" x="445" y="-315.8" font-family="Times,serif" font-size="14.00">Connections.csv</text>
</g>
<!-- ExportedData&#45;&gt;Connections.csv -->
<g id="edge2" class="edge">
<title>ExportedData&#45;&gt;Connections.csv</title>
<path fill="none" stroke="black" d="M308.82,-398.14C336.07,-382.6 377.76,-358.83 407.84,-341.69"/>
<polygon fill="black" stroke="black" points="409.81,-344.59 416.77,-336.6 406.35,-338.51 409.81,-344.59"/>
</g>
<!-- Invitations.csv -->
<g id="node5" class="node">
<title>Invitations.csv</title>
<ellipse fill="lightblue" stroke="black" cx="95" cy="-319.5" rx="78.79" ry="18"/>
<text text-anchor="middle" x="95" y="-315.8" font-family="Times,serif" font-size="14.00">Invitations.csv</text>
</g>
<!-- ExportedData&#45;&gt;Invitations.csv -->
<g id="edge3" class="edge">
<title>ExportedData&#45;&gt;Invitations.csv</title>
<path fill="none" stroke="black" d="M250.29,-398.56C218.88,-382.77 169.93,-358.17 135.4,-340.81"/>
<polygon fill="black" stroke="black" points="136.58,-337.48 126.07,-336.12 133.43,-343.74 136.58,-337.48"/>
</g>
<!-- Messages.csv -->
<g id="node6" class="node">
<title>Messages.csv</title>
<ellipse fill="lightblue" stroke="black" cx="266" cy="-319.5" rx="74.99" ry="18"/>
<text text-anchor="middle" x="266" y="-315.8" font-family="Times,serif" font-size="14.00">Messages.csv</text>
</g>
<!-- ExportedData&#45;&gt;Messages.csv -->
<g id="edge4" class="edge">
<title>ExportedData&#45;&gt;Messages.csv</title>
<path fill="none" stroke="black" d="M278.25,-396.85C276.05,-383.14 272.93,-363.67 270.38,-347.82"/>
<polygon fill="black" stroke="black" points="273.77,-346.86 268.73,-337.54 266.86,-347.97 273.77,-346.86"/>
</g>
<!-- VCard -->
<g id="node7" class="node">
<title>VCard</title>
<polygon fill="#f2f2f2" stroke="black" points="604.5,-242 525.5,-242 525.5,-204 604.5,-204 604.5,-242"/>
<text text-anchor="middle" x="565" y="-226.8" font-family="Times,serif" font-size="14.00">LinkedIn</text>
<text text-anchor="middle" x="565" y="-211.8" font-family="Times,serif" font-size="14.00">VCard</text>
</g>
<!-- Connections.csv&#45;&gt;VCard -->
<g id="edge6" class="edge">
<title>Connections.csv&#45;&gt;VCard</title>
<path fill="none" stroke="black" d="M453.96,-301.55C461.4,-288.78 473.02,-271.54 487,-260 495.63,-252.87 505.9,-246.83 516.11,-241.85"/>
<polygon fill="black" stroke="black" points="517.79,-244.93 525.42,-237.58 514.87,-238.57 517.79,-244.93"/>
<text text-anchor="middle" x="519" y="-263.8" font-family="Times,serif" font-size="14.00">generate</text>
</g>
<!-- Invitations.csv&#45;&gt;VCard -->
<g id="edge7" class="edge">
<title>Invitations.csv&#45;&gt;VCard</title>
<path fill="none" stroke="black" d="M141.49,-304.8C154.58,-300.96 168.84,-296.8 182,-293 233.5,-278.13 245.53,-270.94 298,-260 373.06,-244.35 461.48,-233.98 515.37,-228.55"/>
<polygon fill="black" stroke="black" points="515.74,-232.03 525.34,-227.56 515.04,-225.06 515.74,-232.03"/>
<text text-anchor="middle" x="330" y="-263.8" font-family="Times,serif" font-size="14.00">augment</text>
</g>
<!-- Messages.csv&#45;&gt;VCard -->
<g id="edge8" class="edge">
<title>Messages.csv&#45;&gt;VCard</title>
<path fill="none" stroke="black" d="M297.97,-303.13C325.75,-290.24 367.35,-272.05 405,-260 441.34,-248.37 483.47,-239.05 515.38,-232.81"/>
<polygon fill="black" stroke="black" points="516.2,-236.22 525.36,-230.89 514.88,-229.34 516.2,-236.22"/>
<text text-anchor="middle" x="437" y="-263.8" font-family="Times,serif" font-size="14.00">augment</text>
</g>
<!-- Outlook -->
<g id="node14" class="node">
<title>Outlook</title>
<ellipse fill="palegreen" stroke="black" cx="766" cy="-128" rx="46.59" ry="18"/>
<text text-anchor="middle" x="766" y="-124.3" font-family="Times,serif" font-size="14.00">Outlook</text>
</g>
<!-- VCard&#45;&gt;Outlook -->
<g id="edge16" class="edge">
<title>VCard&#45;&gt;Outlook</title>
<path fill="none" stroke="black" d="M604.59,-214.31C634.76,-207.38 676.66,-195.42 710,-177 721.91,-170.42 733.58,-161.03 743.16,-152.3"/>
<polygon fill="black" stroke="black" points="745.81,-154.61 750.67,-145.2 741,-149.53 745.81,-154.61"/>
</g>
<!-- GoogleContacts -->
<g id="node15" class="node">
<title>GoogleContacts</title>
<ellipse fill="palegreen" stroke="black" cx="918" cy="-128" rx="87.18" ry="18"/>
<text text-anchor="middle" x="918" y="-124.3" font-family="Times,serif" font-size="14.00">Google Contacts</text>
</g>
<!-- VCard&#45;&gt;GoogleContacts -->
<g id="edge18" class="edge">
<title>VCard&#45;&gt;GoogleContacts</title>
<path fill="none" stroke="black" d="M604.61,-218.66C655.85,-213.53 747.36,-201.61 822,-177 842.65,-170.19 864.41,-159.62 881.99,-150.13"/>
<polygon fill="black" stroke="black" points="883.7,-153.18 890.77,-145.29 880.32,-147.05 883.7,-153.18"/>
</g>
<!-- AppleContacts -->
<g id="node16" class="node">
<title>AppleContacts</title>
<ellipse fill="palegreen" stroke="black" cx="458" cy="-128" rx="81.49" ry="18"/>
<text text-anchor="middle" x="458" y="-124.3" font-family="Times,serif" font-size="14.00">Apple Contacts</text>
</g>
<!-- VCard&#45;&gt;AppleContacts -->
<g id="edge20" class="edge">
<title>VCard&#45;&gt;AppleContacts</title>
<path fill="none" stroke="black" d="M544.12,-203.85C527.24,-189.18 503.36,-168.42 485.03,-152.49"/>
<polygon fill="black" stroke="black" points="486.88,-149.46 477.04,-145.55 482.29,-154.75 486.88,-149.46"/>
</g>
<!-- ebdb -->
<g id="node17" class="node">
<title>ebdb</title>
<ellipse fill="palegreen" stroke="black" cx="629" cy="-128" rx="72.29" ry="18"/>
<text text-anchor="middle" x="629" y="-124.3" font-family="Times,serif" font-size="14.00">Emacs EBDB</text>
</g>
<!-- VCard&#45;&gt;ebdb -->
<g id="edge22" class="edge">
<title>VCard&#45;&gt;ebdb</title>
<path fill="none" stroke="black" d="M577.64,-203.63C587.33,-189.55 600.8,-169.98 611.52,-154.41"/>
<polygon fill="black" stroke="black" points="614.67,-155.99 617.46,-145.77 608.91,-152.03 614.67,-155.99"/>
</g>
<!-- ContactInfo&#45;&gt;VCard -->
<g id="edge10" class="edge">
<title>ContactInfo&#45;&gt;VCard</title>
<path fill="none" stroke="darkblue" d="M616.72,-492.84C607.58,-445.32 581.71,-310.87 570.4,-252.09"/>
<polygon fill="darkblue" stroke="darkblue" points="573.8,-251.19 568.47,-242.03 566.92,-252.51 573.8,-251.19"/>
<text text-anchor="middle" x="617" y="-367.8" font-family="Times,serif" font-size="14.00">enrich</text>
</g>
<!-- External -->
<g id="node9" class="node">
<title>External</title>
<ellipse fill="mistyrose" stroke="black" cx="883" cy="-510.87" rx="51.99" ry="18"/>
<text text-anchor="middle" x="883" y="-507.17" font-family="Times,serif" font-size="14.00">Web Info</text>
</g>
<!-- ExternalInfo -->
<g id="node12" class="node">
<title>ExternalInfo</title>
<ellipse fill="mistyrose" stroke="black" cx="830" cy="-415" rx="68.79" ry="18"/>
<text text-anchor="middle" x="830" y="-411.3" font-family="Times,serif" font-size="14.00">ExternalInfo</text>
</g>
<!-- External&#45;&gt;ExternalInfo -->
<g id="edge11" class="edge">
<title>External&#45;&gt;ExternalInfo</title>
<path fill="none" stroke="orangered" d="M873.52,-493.09C865.51,-478.89 853.89,-458.32 844.68,-441.99"/>
<polygon fill="orangered" stroke="orangered" points="847.54,-439.94 839.57,-432.95 841.44,-443.38 847.54,-439.94"/>
</g>
<!-- ExtAddrBook -->
<g id="node10" class="node">
<title>ExtAddrBook</title>
<ellipse fill="mistyrose" stroke="black" cx="761" cy="-510.87" rx="52.15" ry="26.74"/>
<text text-anchor="middle" x="761" y="-514.67" font-family="Times,serif" font-size="14.00">Address</text>
<text text-anchor="middle" x="761" y="-499.67" font-family="Times,serif" font-size="14.00">Book</text>
</g>
<!-- ExtAddrBook&#45;&gt;ExternalInfo -->
<g id="edge12" class="edge">
<title>ExtAddrBook&#45;&gt;ExternalInfo</title>
<path fill="none" stroke="orangered" d="M779.13,-485.21C789.09,-471.66 801.41,-454.89 811.44,-441.25"/>
<polygon fill="orangered" stroke="orangered" points="814.54,-442.94 817.64,-432.81 808.9,-438.79 814.54,-442.94"/>
</g>
<!-- ExtTags -->
<g id="node11" class="node">
<title>ExtTags</title>
<ellipse fill="mistyrose" stroke="black" cx="1017" cy="-510.87" rx="64.19" ry="26.74"/>
<text text-anchor="middle" x="1017" y="-514.67" font-family="Times,serif" font-size="14.00">Tags</text>
<text text-anchor="middle" x="1017" y="-499.67" font-family="Times,serif" font-size="14.00">Groupings</text>
</g>
<!-- ExtTags&#45;&gt;ExternalInfo -->
<g id="edge13" class="edge">
<title>ExtTags&#45;&gt;ExternalInfo</title>
<path fill="none" stroke="orangered" d="M976.88,-489.73C945.14,-473.8 901.05,-451.66 869.47,-435.81"/>
<polygon fill="orangered" stroke="orangered" points="871.02,-432.67 860.51,-431.32 867.88,-438.93 871.02,-432.67"/>
</g>
<!-- VCardPlus -->
<g id="node13" class="node">
<title>VCardPlus</title>
<polygon fill="#d9d9d9" stroke="black" points="797.5,-346 718.5,-346 718.5,-293 797.5,-293 797.5,-346"/>
<text text-anchor="middle" x="758" y="-330.8" font-family="Times,serif" font-size="14.00">Plus</text>
<text text-anchor="middle" x="758" y="-315.8" font-family="Times,serif" font-size="14.00">LinkedIn</text>
<text text-anchor="middle" x="758" y="-300.8" font-family="Times,serif" font-size="14.00">VCard</text>
</g>
<!-- ExternalInfo&#45;&gt;VCardPlus -->
<g id="edge14" class="edge">
<title>ExternalInfo&#45;&gt;VCardPlus</title>
<path fill="none" stroke="red" d="M817.13,-397.28C808,-385.43 795.43,-369.1 784.22,-354.55"/>
<polygon fill="red" stroke="red" points="786.7,-352.03 777.82,-346.24 781.15,-356.3 786.7,-352.03"/>
</g>
<!-- VCardPlus&#45;&gt;VCard -->
<g id="edge15" class="edge">
<title>VCardPlus&#45;&gt;VCard</title>
<path fill="none" stroke="darkgreen" stroke-dasharray="5,2" d="M708.36,-314.04C674.86,-308.97 631.08,-298.14 599,-275 590.42,-268.81 583.37,-259.73 577.96,-250.94"/>
<polygon fill="darkgreen" stroke="darkgreen" points="708.02,-317.53 718.4,-315.44 708.98,-310.6 708.02,-317.53"/>
<polygon fill="darkgreen" stroke="darkgreen" points="580.89,-249.01 572.93,-242.02 574.8,-252.45 580.89,-249.01"/>
<text text-anchor="middle" x="634" y="-263.8" font-family="Times,serif" font-size="14.00">Cross Ref</text>
</g>
<!-- VCardPlus&#45;&gt;Outlook -->
<g id="edge17" class="edge">
<title>VCardPlus&#45;&gt;Outlook</title>
<path fill="none" stroke="red" d="M759.08,-292.94C760.58,-257.33 763.3,-193.03 764.84,-156.44"/>
<polygon fill="red" stroke="red" points="768.36,-156.17 765.28,-146.03 761.36,-155.88 768.36,-156.17"/>
</g>
<!-- VCardPlus&#45;&gt;GoogleContacts -->
<g id="edge19" class="edge">
<title>VCardPlus&#45;&gt;GoogleContacts</title>
<path fill="none" stroke="red" d="M779.58,-292.94C810.38,-256.47 866.57,-189.91 897.03,-153.83"/>
<polygon fill="red" stroke="red" points="900.06,-155.68 903.83,-145.78 894.71,-151.16 900.06,-155.68"/>
</g>
<!-- VCardPlus&#45;&gt;AppleContacts -->
<g id="edge21" class="edge">
<title>VCardPlus&#45;&gt;AppleContacts</title>
<path fill="none" stroke="red" d="M730.78,-292.94C703.04,-267.86 657.95,-229.76 614,-204 586.66,-187.98 576.69,-190.47 548,-177 530.45,-168.76 511.44,-158.78 495.44,-150.07"/>
<polygon fill="red" stroke="red" points="496.85,-146.85 486.4,-145.1 493.48,-152.98 496.85,-146.85"/>
</g>
<!-- VCardPlus&#45;&gt;ebdb -->
<g id="edge23" class="edge">
<title>VCardPlus&#45;&gt;ebdb</title>
<path fill="none" stroke="red" d="M750.15,-292.78C740.66,-264.44 722.7,-218.44 697,-185 687.23,-172.29 674.06,-160.6 661.92,-151.23"/>
<polygon fill="red" stroke="red" points="663.84,-148.29 653.73,-145.12 659.65,-153.9 663.84,-148.29"/>
</g>
<!-- mtdt&#45;names -->
<g id="node18" class="node">
<title>mtdt&#45;names</title>
<ellipse fill="yellow" stroke="black" cx="367" cy="-34" rx="66.09" ry="18"/>
<text text-anchor="middle" x="367" y="-30.3" font-family="Times,serif" font-size="14.00">mtdt&#45;names</text>
</g>
<!-- ebdb&#45;&gt;mtdt&#45;names -->
<g id="edge24" class="edge">
<title>ebdb&#45;&gt;mtdt&#45;names</title>
<path fill="none" stroke="darkgreen" d="M587.65,-113.17C575.01,-109.24 561.01,-105.16 548,-102 501.49,-90.7 486.56,-100.46 442,-83 425.71,-76.62 409.16,-66.49 395.76,-57.19"/>
<polygon fill="darkgreen" stroke="darkgreen" points="397.62,-54.21 387.45,-51.23 393.55,-59.9 397.62,-54.21"/>
</g>
<!-- mtdt&#45;addressBook -->
<g id="node19" class="node">
<title>mtdt&#45;addressBook</title>
<ellipse fill="yellow" stroke="black" cx="547" cy="-34" rx="95.58" ry="18"/>
<text text-anchor="middle" x="547" y="-30.3" font-family="Times,serif" font-size="14.00">mtdt&#45;addressBook</text>
</g>
<!-- ebdb&#45;&gt;mtdt&#45;addressBook -->
<g id="edge25" class="edge">
<title>ebdb&#45;&gt;mtdt&#45;addressBook</title>
<path fill="none" stroke="darkgreen" d="M613.96,-110.13C601.44,-96.08 583.43,-75.88 569.24,-59.96"/>
<polygon fill="darkgreen" stroke="darkgreen" points="571.49,-57.22 562.22,-52.08 566.26,-61.87 571.49,-57.22"/>
</g>
<!-- mtdt&#45;distribution -->
<g id="node20" class="node">
<title>mtdt&#45;distribution</title>
<ellipse fill="yellow" stroke="black" cx="752" cy="-34" rx="90.98" ry="18"/>
<text text-anchor="middle" x="752" y="-30.3" font-family="Times,serif" font-size="14.00">mtdt&#45;distribution</text>
</g>
<!-- ebdb&#45;&gt;mtdt&#45;distribution -->
<g id="edge26" class="edge">
<title>ebdb&#45;&gt;mtdt&#45;distribution</title>
<path fill="none" stroke="darkgreen" d="M650.71,-110.76C670.4,-96.04 699.63,-74.17 721.63,-57.71"/>
<polygon fill="darkgreen" stroke="darkgreen" points="723.77,-60.49 729.68,-51.69 719.58,-54.88 723.77,-60.49"/>
</g>
<!-- mtdt&#45;mailings -->
<g id="node21" class="node">
<title>mtdt&#45;mailings</title>
<ellipse fill="yellow" stroke="black" cx="936" cy="-34" rx="75.29" ry="18"/>
<text text-anchor="middle" x="936" y="-30.3" font-family="Times,serif" font-size="14.00">mtdt&#45;mailings</text>
</g>
<!-- ebdb&#45;&gt;mtdt&#45;mailings -->
<g id="edge27" class="edge">
<title>ebdb&#45;&gt;mtdt&#45;mailings</title>
<path fill="none" stroke="darkgreen" d="M669.44,-113.07C682.29,-109.04 696.63,-104.94 710,-102 772.19,-88.34 791.68,-103.4 852,-83 870.49,-76.75 889.5,-66.28 904.75,-56.72"/>
<polygon fill="darkgreen" stroke="darkgreen" points="906.75,-59.59 913.26,-51.23 902.96,-53.71 906.75,-59.59"/>
</g>
</g>
</svg>
