<?xml version="1.0" encoding="UTF-8" standalone="no"?>
<!DOCTYPE svg PUBLIC "-//W3C//DTD SVG 1.1//EN"
 "http://www.w3.org/Graphics/SVG/1.1/DTD/svg11.dtd">
<!-- Generated by graphviz version 2.43.0 (0)
 -->
<!-- Title: %3 Pages: 1 -->
<svg width="1105pt" height="708pt"
 viewBox="0.00 0.00 1105.00 707.74" xmlns="http://www.w3.org/2000/svg" xmlns:xlink="http://www.w3.org/1999/xlink">
<g id="graph0" class="graph" transform="scale(1 1) rotate(0) translate(4 703.74)">
<title>%3</title>
<polygon fill="white" stroke="transparent" points="-4,4 -4,-703.74 1101,-703.74 1101,4 -4,4"/>
<g id="clust1" class="cluster">
<title>cluster_linkedin</title>
<polygon fill="none" stroke="lightblue" points="434,-616.74 434,-691.74 586,-691.74 586,-616.74 434,-616.74"/>
<text text-anchor="middle" x="510" y="-676.54" font-family="Times,serif" font-size="14.00">www.LinkedIn.com</text>
</g>
<g id="clust2" class="cluster">
<title>cluster_exported</title>
<polygon fill="none" stroke="lightblue" points="8,-308.5 8,-574.87 538,-574.87 538,-308.5 8,-308.5"/>
<text text-anchor="middle" x="273" y="-559.67" font-family="Times,serif" font-size="14.00">LinkedIn Exported Info</text>
</g>
<g id="clust3" class="cluster">
<title>cluster_web</title>
<polygon fill="none" stroke="lightblue" points="546,-499.87 546,-574.87 692,-574.87 692,-499.87 546,-499.87"/>
<text text-anchor="middle" x="619" y="-559.67" font-family="Times,serif" font-size="14.00">LinkedIn Web Info</text>
</g>
<g id="clust4" class="cluster">
<title>cluster_external</title>
<polygon fill="linen" stroke="orange" points="700,-404 700,-583.74 1089,-583.74 1089,-404 700,-404"/>
<text text-anchor="middle" x="894.5" y="-568.54" font-family="Times,serif" font-size="14.00">External Sources</text>
</g>
<g id="clust5" class="cluster">
<title>cluster_consumers</title>
<polygon fill="lightgreen" stroke="green" points="330,-102 330,-177 974,-177 974,-102 330,-102"/>
<text text-anchor="middle" x="652" y="-161.8" font-family="Times,serif" font-size="14.00">Address Book Consumers</text>
</g>
<g id="clust6" class="cluster">
<title>cluster_mtdt</title>
<polygon fill="#ffec8b" stroke="#ffec8b" points="359,-8 359,-83 1085,-83 1085,-8 359,-8"/>
<text text-anchor="middle" x="722" y="-67.8" font-family="Times,serif" font-size="14.00">MTDT: Mail Templating Distribution &amp; Tracking</text>
</g>
<!-- LinkedIn -->
<g id="node1" class="node">
<title>LinkedIn</title>
<ellipse fill="#b2dfee" stroke="black" cx="510" cy="-642.74" rx="51.19" ry="18"/>
<text text-anchor="middle" x="510" y="-639.04" font-family="Times,serif" font-size="14.00">LinkedIn</text>
</g>
<!-- Export.zip -->
<g id="node2" class="node">
<title>Export.zip</title>
<ellipse fill="lightblue" stroke="black" cx="363" cy="-525.87" rx="59.29" ry="18"/>
<text text-anchor="middle" x="363" y="-522.17" font-family="Times,serif" font-size="14.00">Export.zip</text>
</g>
<!-- LinkedIn&#45;&gt;Export.zip -->
<g id="edge5" class="edge">
<title>LinkedIn&#45;&gt;Export.zip</title>
<path fill="none" stroke="blue" d="M464.33,-634.47C444.34,-629.41 421.69,-620.92 405,-606.74 388.63,-592.83 377.75,-570.92 371.17,-553.56"/>
<polygon fill="blue" stroke="blue" points="374.41,-552.22 367.79,-543.96 367.81,-554.55 374.41,-552.22"/>
<text text-anchor="middle" x="488.5" y="-595.54" font-family="Times,serif" font-size="14.00">LinkedInExportProcess</text>
</g>
<!-- ContactInfo -->
<g id="node9" class="node">
<title>ContactInfo</title>
<ellipse fill="lightskyblue" stroke="black" cx="619" cy="-525.87" rx="64.99" ry="18"/>
<text text-anchor="middle" x="619" y="-522.17" font-family="Times,serif" font-size="14.00">ContactInfo</text>
</g>
<!-- LinkedIn&#45;&gt;ContactInfo -->
<g id="edge9" class="edge">
<title>LinkedIn&#45;&gt;ContactInfo</title>
<path fill="none" stroke="blue" d="M543.07,-628.94C554.48,-623.37 566.71,-615.97 576,-606.74 591.13,-591.71 602.28,-570.23 609.44,-553.33"/>
<polygon fill="blue" stroke="blue" points="612.71,-554.58 613.18,-543.99 606.21,-551.97 612.71,-554.58"/>
<text text-anchor="middle" x="626.5" y="-595.54" font-family="Times,serif" font-size="14.00">WebAccess</text>
</g>
<!-- ExportedData -->
<g id="node3" class="node">
<title>ExportedData</title>
<ellipse fill="lightblue" stroke="black" cx="277" cy="-430" rx="75.29" ry="18"/>
<text text-anchor="middle" x="277" y="-426.3" font-family="Times,serif" font-size="14.00">ExportedData</text>
</g>
<!-- Export.zip&#45;&gt;ExportedData -->
<g id="edge1" class="edge">
<title>Export.zip&#45;&gt;ExportedData</title>
<path fill="none" stroke="black" d="M347.62,-508.09C334.17,-493.4 314.46,-471.89 299.28,-455.32"/>
<polygon fill="black" stroke="black" points="301.58,-452.65 292.24,-447.64 296.42,-457.37 301.58,-452.65"/>
<text text-anchor="middle" x="342" y="-469.8" font-family="Times,serif" font-size="14.00">unzip</text>
</g>
<!-- Connections.csv -->
<g id="node4" class="node">
<title>Connections.csv</title>
<ellipse fill="lightblue" stroke="black" cx="444" cy="-334.5" rx="85.59" ry="18"/>
<text text-anchor="middle" x="444" y="-330.8" font-family="Times,serif" font-size="14.00">Connections.csv</text>
</g>
<!-- ExportedData&#45;&gt;Connections.csv -->
<g id="edge2" class="edge">
<title>ExportedData&#45;&gt;Connections.csv</title>
<path fill="none" stroke="black" d="M305.33,-413.14C333.08,-397.6 375.53,-373.83 406.16,-356.69"/>
<polygon fill="black" stroke="black" points="408.24,-359.53 415.25,-351.6 404.82,-353.43 408.24,-359.53"/>
</g>
<!-- Invitations.csv -->
<g id="node5" class="node">
<title>Invitations.csv</title>
<ellipse fill="lightblue" stroke="black" cx="262" cy="-334.5" rx="78.79" ry="18"/>
<text text-anchor="middle" x="262" y="-330.8" font-family="Times,serif" font-size="14.00">Invitations.csv</text>
</g>
<!-- ExportedData&#45;&gt;Invitations.csv -->
<g id="edge3" class="edge">
<title>ExportedData&#45;&gt;Invitations.csv</title>
<path fill="none" stroke="black" d="M274.25,-411.85C272.05,-398.14 268.93,-378.67 266.38,-362.82"/>
<polygon fill="black" stroke="black" points="269.77,-361.86 264.73,-352.54 262.86,-362.97 269.77,-361.86"/>
</g>
<!-- Messages.csv -->
<g id="node6" class="node">
<title>Messages.csv</title>
<ellipse fill="lightblue" stroke="black" cx="91" cy="-334.5" rx="74.99" ry="18"/>
<text text-anchor="middle" x="91" y="-330.8" font-family="Times,serif" font-size="14.00">Messages.csv</text>
</g>
<!-- ExportedData&#45;&gt;Messages.csv -->
<g id="edge4" class="edge">
<title>ExportedData&#45;&gt;Messages.csv</title>
<path fill="none" stroke="black" d="M246.29,-413.56C214.78,-397.73 165.64,-373.02 131.09,-355.65"/>
<polygon fill="black" stroke="black" points="132.27,-352.33 121.76,-350.96 129.12,-358.58 132.27,-352.33"/>
</g>
<!-- VCard -->
<g id="node7" class="node">
<title>VCard</title>
<polygon fill="#f2f2f2" stroke="black" points="632.5,-249.5 553.5,-249.5 553.5,-211.5 632.5,-211.5 632.5,-249.5"/>
<text text-anchor="middle" x="593" y="-234.3" font-family="Times,serif" font-size="14.00">LinkedIn</text>
<text text-anchor="middle" x="593" y="-219.3" font-family="Times,serif" font-size="14.00">VCard</text>
</g>
<!-- Connections.csv&#45;&gt;VCard -->
<g id="edge6" class="edge">
<title>Connections.csv&#45;&gt;VCard</title>
<path fill="none" stroke="black" d="M461.63,-316.79C475.11,-304.46 494.47,-287.69 513,-275 523.6,-267.74 535.53,-260.7 546.88,-254.48"/>
<polygon fill="black" stroke="black" points="548.67,-257.49 555.83,-249.68 545.36,-251.33 548.67,-257.49"/>
<text text-anchor="middle" x="545" y="-278.8" font-family="Times,serif" font-size="14.00">generate</text>
</g>
<!-- Invitations.csv&#45;&gt;VCard -->
<g id="edge7" class="edge">
<title>Invitations.csv&#45;&gt;VCard</title>
<path fill="none" stroke="black" d="M300.2,-318.67C333.02,-306.2 381.76,-288.33 425,-275 464.4,-262.86 509.68,-251.27 543.3,-243.11"/>
<polygon fill="black" stroke="black" points="544.44,-246.43 553.34,-240.69 542.8,-239.63 544.44,-246.43"/>
<text text-anchor="middle" x="457" y="-278.8" font-family="Times,serif" font-size="14.00">augment</text>
</g>
<!-- Maildir -->
<g id="node8" class="node">
<title>Maildir</title>
<polygon fill="#bfbfbf" stroke="black" points="134.5,-257 47.5,-257 47.5,-204 134.5,-204 134.5,-257"/>
<text text-anchor="middle" x="91" y="-241.8" font-family="Times,serif" font-size="14.00">LinkedIn</text>
<text text-anchor="middle" x="91" y="-226.8" font-family="Times,serif" font-size="14.00">Messages</text>
<text text-anchor="middle" x="91" y="-211.8" font-family="Times,serif" font-size="14.00">Maildir</text>
</g>
<!-- Messages.csv&#45;&gt;Maildir -->
<g id="edge8" class="edge">
<title>Messages.csv&#45;&gt;Maildir</title>
<path fill="none" stroke="black" d="M91,-316.2C91,-302.96 91,-284.23 91,-267.75"/>
<polygon fill="black" stroke="black" points="94.5,-267.33 91,-257.33 87.5,-267.33 94.5,-267.33"/>
<text text-anchor="middle" x="118.5" y="-278.8" font-family="Times,serif" font-size="14.00">convert</text>
</g>
<!-- Outlook -->
<g id="node15" class="node">
<title>Outlook</title>
<ellipse fill="palegreen" stroke="black" cx="919" cy="-128" rx="46.59" ry="18"/>
<text text-anchor="middle" x="919" y="-124.3" font-family="Times,serif" font-size="14.00">Outlook</text>
</g>
<!-- VCard&#45;&gt;Outlook -->
<g id="edge16" class="edge">
<title>VCard&#45;&gt;Outlook</title>
<path fill="none" stroke="black" d="M632.53,-228.1C686.96,-224.8 786.9,-213.79 863,-177 875.55,-170.93 887.56,-161.34 897.21,-152.32"/>
<polygon fill="black" stroke="black" points="899.7,-154.78 904.41,-145.29 894.81,-149.77 899.7,-154.78"/>
</g>
<!-- GoogleContacts -->
<g id="node16" class="node">
<title>GoogleContacts</title>
<ellipse fill="palegreen" stroke="black" cx="605" cy="-128" rx="87.18" ry="18"/>
<text text-anchor="middle" x="605" y="-124.3" font-family="Times,serif" font-size="14.00">Google Contacts</text>
</g>
<!-- VCard&#45;&gt;GoogleContacts -->
<g id="edge18" class="edge">
<title>VCard&#45;&gt;GoogleContacts</title>
<path fill="none" stroke="black" d="M595.2,-211.07C597.03,-195.77 599.65,-173.79 601.73,-156.42"/>
<polygon fill="black" stroke="black" points="605.22,-156.65 602.93,-146.31 598.27,-155.82 605.22,-156.65"/>
</g>
<!-- AppleContacts -->
<g id="node17" class="node">
<title>AppleContacts</title>
<ellipse fill="palegreen" stroke="black" cx="419" cy="-128" rx="81.49" ry="18"/>
<text text-anchor="middle" x="419" y="-124.3" font-family="Times,serif" font-size="14.00">Apple Contacts</text>
</g>
<!-- VCard&#45;&gt;AppleContacts -->
<g id="edge20" class="edge">
<title>VCard&#45;&gt;AppleContacts</title>
<path fill="none" stroke="black" d="M561.49,-211.3C531.72,-194.1 487.07,-168.32 455.7,-150.2"/>
<polygon fill="black" stroke="black" points="457.24,-147.05 446.83,-145.07 453.74,-153.11 457.24,-147.05"/>
</g>
<!-- ebdb -->
<g id="node18" class="node">
<title>ebdb</title>
<ellipse fill="palegreen" stroke="black" cx="782" cy="-128" rx="72.29" ry="18"/>
<text text-anchor="middle" x="782" y="-124.3" font-family="Times,serif" font-size="14.00">Emacs EBDB</text>
</g>
<!-- VCard&#45;&gt;ebdb -->
<g id="edge22" class="edge">
<title>VCard&#45;&gt;ebdb</title>
<path fill="none" stroke="black" d="M617.55,-211.46C630.98,-202.35 648.26,-191.81 665,-185 680.18,-178.83 685.76,-183.03 701,-177 718.24,-170.18 736.11,-159.97 750.67,-150.73"/>
<polygon fill="black" stroke="black" points="752.79,-153.52 759.26,-145.13 748.97,-147.65 752.79,-153.52"/>
</g>
<!-- ContactInfo&#45;&gt;VCard -->
<g id="edge10" class="edge">
<title>ContactInfo&#45;&gt;VCard</title>
<path fill="none" stroke="darkblue" d="M617.49,-507.83C613.19,-459.36 600.87,-320.35 595.53,-260.02"/>
<polygon fill="darkblue" stroke="darkblue" points="598.98,-259.36 594.61,-249.71 592.01,-259.98 598.98,-259.36"/>
<text text-anchor="middle" x="630" y="-382.8" font-family="Times,serif" font-size="14.00">enrich</text>
</g>
<!-- External -->
<g id="node10" class="node">
<title>External</title>
<ellipse fill="mistyrose" stroke="black" cx="1029" cy="-525.87" rx="51.99" ry="18"/>
<text text-anchor="middle" x="1029" y="-522.17" font-family="Times,serif" font-size="14.00">Web Info</text>
</g>
<!-- ExternalInfo -->
<g id="node13" class="node">
<title>ExternalInfo</title>
<ellipse fill="mistyrose" stroke="black" cx="810" cy="-430" rx="68.79" ry="18"/>
<text text-anchor="middle" x="810" y="-426.3" font-family="Times,serif" font-size="14.00">ExternalInfo</text>
</g>
<!-- External&#45;&gt;ExternalInfo -->
<g id="edge11" class="edge">
<title>External&#45;&gt;ExternalInfo</title>
<path fill="none" stroke="orangered" d="M997.62,-511.42C959.8,-495.21 896.02,-467.87 853.47,-449.63"/>
<polygon fill="orangered" stroke="orangered" points="854.77,-446.38 844.2,-445.66 852.02,-452.82 854.77,-446.38"/>
</g>
<!-- ExtAddrBook -->
<g id="node11" class="node">
<title>ExtAddrBook</title>
<ellipse fill="mistyrose" stroke="black" cx="907" cy="-525.87" rx="52.15" ry="26.74"/>
<text text-anchor="middle" x="907" y="-529.67" font-family="Times,serif" font-size="14.00">Address</text>
<text text-anchor="middle" x="907" y="-514.67" font-family="Times,serif" font-size="14.00">Book</text>
</g>
<!-- ExtAddrBook&#45;&gt;ExternalInfo -->
<g id="edge12" class="edge">
<title>ExtAddrBook&#45;&gt;ExternalInfo</title>
<path fill="none" stroke="orangered" d="M883.02,-501.67C868.21,-487.33 849.26,-469 834.38,-454.59"/>
<polygon fill="orangered" stroke="orangered" points="836.63,-451.9 827.01,-447.46 831.76,-456.93 836.63,-451.9"/>
</g>
<!-- ExtTags -->
<g id="node12" class="node">
<title>ExtTags</title>
<ellipse fill="mistyrose" stroke="black" cx="772" cy="-525.87" rx="64.19" ry="26.74"/>
<text text-anchor="middle" x="772" y="-529.67" font-family="Times,serif" font-size="14.00">Tags</text>
<text text-anchor="middle" x="772" y="-514.67" font-family="Times,serif" font-size="14.00">Groupings</text>
</g>
<!-- ExtTags&#45;&gt;ExternalInfo -->
<g id="edge13" class="edge">
<title>ExtTags&#45;&gt;ExternalInfo</title>
<path fill="none" stroke="orangered" d="M782.38,-499.22C787.64,-486.24 794.01,-470.51 799.3,-457.43"/>
<polygon fill="orangered" stroke="orangered" points="802.6,-458.61 803.11,-448.03 796.11,-455.98 802.6,-458.61"/>
</g>
<!-- VCardPlus -->
<g id="node14" class="node">
<title>VCardPlus</title>
<polygon fill="#d9d9d9" stroke="black" points="805.5,-361 726.5,-361 726.5,-308 805.5,-308 805.5,-361"/>
<text text-anchor="middle" x="766" y="-345.8" font-family="Times,serif" font-size="14.00">Plus</text>
<text text-anchor="middle" x="766" y="-330.8" font-family="Times,serif" font-size="14.00">LinkedIn</text>
<text text-anchor="middle" x="766" y="-315.8" font-family="Times,serif" font-size="14.00">VCard</text>
</g>
<!-- ExternalInfo&#45;&gt;VCardPlus -->
<g id="edge14" class="edge">
<title>ExternalInfo&#45;&gt;VCardPlus</title>
<path fill="none" stroke="red" d="M801.93,-411.85C796.43,-400.17 788.97,-384.31 782.27,-370.07"/>
<polygon fill="red" stroke="red" points="785.43,-368.56 778,-361.01 779.09,-371.55 785.43,-368.56"/>
</g>
<!-- VCardPlus&#45;&gt;VCard -->
<g id="edge15" class="edge">
<title>VCardPlus&#45;&gt;VCard</title>
<path fill="none" stroke="darkgreen" stroke-dasharray="5,2" d="M716.3,-327.65C687.09,-322.05 650.92,-311.16 625,-290 615.08,-281.9 607.76,-269.88 602.64,-258.84"/>
<polygon fill="darkgreen" stroke="darkgreen" points="715.86,-331.12 726.32,-329.41 717.08,-324.23 715.86,-331.12"/>
<polygon fill="darkgreen" stroke="darkgreen" points="605.82,-257.36 598.71,-249.51 599.37,-260.09 605.82,-257.36"/>
<text text-anchor="middle" x="660" y="-278.8" font-family="Times,serif" font-size="14.00">Cross Ref</text>
</g>
<!-- VCardPlus&#45;&gt;Outlook -->
<g id="edge17" class="edge">
<title>VCardPlus&#45;&gt;Outlook</title>
<path fill="none" stroke="red" d="M785.38,-307.6C815.06,-267.93 871.38,-192.64 900.52,-153.71"/>
<polygon fill="red" stroke="red" points="903.45,-155.63 906.64,-145.53 897.84,-151.44 903.45,-155.63"/>
</g>
<!-- VCardPlus&#45;&gt;GoogleContacts -->
<g id="edge19" class="edge">
<title>VCardPlus&#45;&gt;GoogleContacts</title>
<path fill="none" stroke="red" d="M765.39,-307.77C763.25,-275.13 754.81,-219.01 723,-185 715.89,-177.4 710.56,-181.11 701,-177 681.94,-168.8 661.29,-158.65 644.04,-149.8"/>
<polygon fill="red" stroke="red" points="645.34,-146.53 634.85,-145.03 642.12,-152.74 645.34,-146.53"/>
</g>
<!-- VCardPlus&#45;&gt;AppleContacts -->
<g id="edge21" class="edge">
<title>VCardPlus&#45;&gt;AppleContacts</title>
<path fill="none" stroke="red" d="M748.92,-307.86C727.59,-277.98 688.21,-229.47 642,-204 589.17,-174.89 565.76,-197.41 509,-177 489.74,-170.07 469.52,-159.62 453.14,-150.23"/>
<polygon fill="red" stroke="red" points="454.86,-147.18 444.46,-145.15 451.33,-153.22 454.86,-147.18"/>
</g>
<!-- VCardPlus&#45;&gt;ebdb -->
<g id="edge23" class="edge">
<title>VCardPlus&#45;&gt;ebdb</title>
<path fill="none" stroke="red" d="M768.03,-307.6C771.07,-268.71 776.79,-195.59 779.88,-156.04"/>
<polygon fill="red" stroke="red" points="783.37,-156.31 780.66,-146.07 776.4,-155.76 783.37,-156.31"/>
</g>
<!-- mtdt&#45;names -->
<g id="node19" class="node">
<title>mtdt&#45;names</title>
<ellipse fill="yellow" stroke="black" cx="433" cy="-34" rx="66.09" ry="18"/>
<text text-anchor="middle" x="433" y="-30.3" font-family="Times,serif" font-size="14.00">mtdt&#45;names</text>
</g>
<!-- ebdb&#45;&gt;mtdt&#45;names -->
<g id="edge24" class="edge">
<title>ebdb&#45;&gt;mtdt&#45;names</title>
<path fill="none" stroke="darkgreen" d="M742.04,-112.92C729.08,-108.83 714.56,-104.73 701,-102 616.5,-84.98 589.44,-111.23 508,-83 491.23,-77.18 474.41,-66.93 460.96,-57.38"/>
<polygon fill="darkgreen" stroke="darkgreen" points="462.78,-54.37 452.65,-51.27 458.63,-60.01 462.78,-54.37"/>
</g>
<!-- mtdt&#45;addressBook -->
<g id="node20" class="node">
<title>mtdt&#45;addressBook</title>
<ellipse fill="yellow" stroke="black" cx="613" cy="-34" rx="95.58" ry="18"/>
<text text-anchor="middle" x="613" y="-30.3" font-family="Times,serif" font-size="14.00">mtdt&#45;addressBook</text>
</g>
<!-- ebdb&#45;&gt;mtdt&#45;addressBook -->
<g id="edge25" class="edge">
<title>ebdb&#45;&gt;mtdt&#45;addressBook</title>
<path fill="none" stroke="darkgreen" d="M753.33,-111.39C725.3,-96.14 682.44,-72.8 651.46,-55.94"/>
<polygon fill="darkgreen" stroke="darkgreen" points="653.12,-52.86 642.66,-51.15 649.77,-59 653.12,-52.86"/>
</g>
<!-- mtdt&#45;distribution -->
<g id="node21" class="node">
<title>mtdt&#45;distribution</title>
<ellipse fill="yellow" stroke="black" cx="818" cy="-34" rx="90.98" ry="18"/>
<text text-anchor="middle" x="818" y="-30.3" font-family="Times,serif" font-size="14.00">mtdt&#45;distribution</text>
</g>
<!-- ebdb&#45;&gt;mtdt&#45;distribution -->
<g id="edge26" class="edge">
<title>ebdb&#45;&gt;mtdt&#45;distribution</title>
<path fill="none" stroke="darkgreen" d="M788.77,-109.7C794.05,-96.2 801.48,-77.23 807.52,-61.78"/>
<polygon fill="darkgreen" stroke="darkgreen" points="810.87,-62.81 811.26,-52.23 804.36,-60.26 810.87,-62.81"/>
</g>
<!-- mtdt&#45;mailings -->
<g id="node22" class="node">
<title>mtdt&#45;mailings</title>
<ellipse fill="yellow" stroke="black" cx="1002" cy="-34" rx="75.29" ry="18"/>
<text text-anchor="middle" x="1002" y="-30.3" font-family="Times,serif" font-size="14.00">mtdt&#45;mailings</text>
</g>
<!-- ebdb&#45;&gt;mtdt&#45;mailings -->
<g id="edge27" class="edge">
<title>ebdb&#45;&gt;mtdt&#45;mailings</title>
<path fill="none" stroke="darkgreen" d="M825.4,-113.45C861.82,-102 909.26,-86.86 918,-83 935.05,-75.47 953.1,-65.45 968.08,-56.51"/>
<polygon fill="darkgreen" stroke="darkgreen" points="970.24,-59.29 976.98,-51.12 966.61,-53.31 970.24,-59.29"/>
</g>
</g>
</svg>
