<?xml version="1.0" encoding="UTF-8" standalone="no"?>
<!DOCTYPE svg PUBLIC "-//W3C//DTD SVG 1.1//EN"
 "http://www.w3.org/Graphics/SVG/1.1/DTD/svg11.dtd">
<!-- Generated by graphviz version 2.43.0 (0)
 -->
<!-- Title: %3 Pages: 1 -->
<svg width="957pt" height="235pt"
 viewBox="0.00 0.00 957.00 235.00" xmlns="http://www.w3.org/2000/svg" xmlns:xlink="http://www.w3.org/1999/xlink">
<g id="graph0" class="graph" transform="scale(1 1) rotate(0) translate(4 231)">
<title>%3</title>
<polygon fill="white" stroke="transparent" points="-4,4 -4,-231 953,-231 953,4 -4,4"/>
<g id="clust1" class="cluster">
<title>cluster_consumers</title>
<polygon fill="lightgreen" stroke="green" points="297,-91 297,-166 941,-166 941,-91 297,-91"/>
<text text-anchor="middle" x="619" y="-150.8" font-family="Times,serif" font-size="14.00">Address Book Consumers</text>
</g>
<g id="clust2" class="cluster">
<title>cluster_mtdt</title>
<polygon fill="#ffec8b" stroke="#ffec8b" points="8,-8 8,-83 734,-83 734,-8 8,-8"/>
<text text-anchor="middle" x="371" y="-67.8" font-family="Times,serif" font-size="14.00">MTDT: Mail Templating Distribution &amp; Tracking</text>
</g>
<!-- VCard -->
<g id="node1" class="node">
<title>VCard</title>
<polygon fill="#f2f2f2" stroke="black" points="631.5,-219.5 552.5,-219.5 552.5,-181.5 631.5,-181.5 631.5,-219.5"/>
<text text-anchor="middle" x="592" y="-204.3" font-family="Times,serif" font-size="14.00">LinkedIn</text>
<text text-anchor="middle" x="592" y="-189.3" font-family="Times,serif" font-size="14.00">VCard</text>
</g>
<!-- Outlook -->
<g id="node3" class="node">
<title>Outlook</title>
<ellipse fill="palegreen" stroke="black" cx="886" cy="-117" rx="46.59" ry="18"/>
<text text-anchor="middle" x="886" y="-113.3" font-family="Times,serif" font-size="14.00">Outlook</text>
</g>
<!-- VCard&#45;&gt;Outlook -->
<g id="edge1" class="edge">
<title>VCard&#45;&gt;Outlook</title>
<path fill="none" stroke="black" d="M631.59,-182.94C641.67,-179.38 652.6,-176.07 663,-174 699.44,-166.75 795.47,-179.72 830,-166 843.15,-160.78 855.37,-151.12 865.03,-141.84"/>
<polygon fill="black" stroke="black" points="867.67,-144.14 872.19,-134.56 862.68,-139.23 867.67,-144.14"/>
</g>
<!-- GoogleContacts -->
<g id="node4" class="node">
<title>GoogleContacts</title>
<ellipse fill="palegreen" stroke="black" cx="734" cy="-117" rx="87.18" ry="18"/>
<text text-anchor="middle" x="734" y="-113.3" font-family="Times,serif" font-size="14.00">Google Contacts</text>
</g>
<!-- VCard&#45;&gt;GoogleContacts -->
<g id="edge3" class="edge">
<title>VCard&#45;&gt;GoogleContacts</title>
<path fill="none" stroke="black" d="M623.51,-181.41C645.3,-168.91 674.35,-152.23 697.2,-139.12"/>
<polygon fill="black" stroke="black" points="699.01,-142.12 705.94,-134.1 695.52,-136.05 699.01,-142.12"/>
</g>
<!-- AppleContacts -->
<g id="node5" class="node">
<title>AppleContacts</title>
<ellipse fill="palegreen" stroke="black" cx="548" cy="-117" rx="81.49" ry="18"/>
<text text-anchor="middle" x="548" y="-113.3" font-family="Times,serif" font-size="14.00">Apple Contacts</text>
</g>
<!-- VCard&#45;&gt;AppleContacts -->
<g id="edge5" class="edge">
<title>VCard&#45;&gt;AppleContacts</title>
<path fill="none" stroke="black" d="M582.23,-181.41C576.26,-170.35 568.53,-156.02 561.92,-143.79"/>
<polygon fill="black" stroke="black" points="564.97,-142.06 557.14,-134.92 558.81,-145.39 564.97,-142.06"/>
</g>
<!-- ebdb -->
<g id="node6" class="node">
<title>ebdb</title>
<ellipse fill="palegreen" stroke="black" cx="377" cy="-117" rx="72.29" ry="18"/>
<text text-anchor="middle" x="377" y="-113.3" font-family="Times,serif" font-size="14.00">Emacs EBDB</text>
</g>
<!-- VCard&#45;&gt;ebdb -->
<g id="edge7" class="edge">
<title>VCard&#45;&gt;ebdb</title>
<path fill="none" stroke="black" d="M552.34,-192.73C525.16,-187.33 488.61,-178.58 458,-166 440.97,-159 423.25,-148.87 408.74,-139.72"/>
<polygon fill="black" stroke="black" points="410.46,-136.66 400.15,-134.18 406.66,-142.54 410.46,-136.66"/>
</g>
<!-- VCardPlus -->
<g id="node2" class="node">
<title>VCardPlus</title>
<polygon fill="#d9d9d9" stroke="black" points="750.5,-227 671.5,-227 671.5,-174 750.5,-174 750.5,-227"/>
<text text-anchor="middle" x="711" y="-211.8" font-family="Times,serif" font-size="14.00">Plus</text>
<text text-anchor="middle" x="711" y="-196.8" font-family="Times,serif" font-size="14.00">LinkedIn</text>
<text text-anchor="middle" x="711" y="-181.8" font-family="Times,serif" font-size="14.00">VCard</text>
</g>
<!-- VCardPlus&#45;&gt;Outlook -->
<g id="edge2" class="edge">
<title>VCardPlus&#45;&gt;Outlook</title>
<path fill="none" stroke="red" d="M750.68,-192.83C774.63,-187.73 805.21,-179.27 830,-166 841.99,-159.58 853.68,-150.22 863.24,-141.47"/>
<polygon fill="red" stroke="red" points="865.91,-143.76 870.74,-134.34 861.08,-138.69 865.91,-143.76"/>
</g>
<!-- VCardPlus&#45;&gt;GoogleContacts -->
<g id="edge4" class="edge">
<title>VCardPlus&#45;&gt;GoogleContacts</title>
<path fill="none" stroke="red" d="M718.28,-173.71C720.86,-164.56 723.77,-154.25 726.38,-145"/>
<polygon fill="red" stroke="red" points="729.82,-145.71 729.16,-135.13 723.08,-143.81 729.82,-145.71"/>
</g>
<!-- VCardPlus&#45;&gt;AppleContacts -->
<g id="edge6" class="edge">
<title>VCardPlus&#45;&gt;AppleContacts</title>
<path fill="none" stroke="red" d="M671.39,-181.85C660.51,-176.85 648.75,-171.32 638,-166 620.76,-157.46 601.94,-147.52 585.98,-138.9"/>
<polygon fill="red" stroke="red" points="587.41,-135.7 576.95,-134.01 584.08,-141.85 587.41,-135.7"/>
</g>
<!-- VCardPlus&#45;&gt;ebdb -->
<g id="edge8" class="edge">
<title>VCardPlus&#45;&gt;ebdb</title>
<path fill="none" stroke="red" d="M671.26,-182.65C661.52,-179.19 651.02,-176 641,-174 601.08,-166.05 497.01,-177.61 458,-166 439.71,-160.55 421.25,-150.09 406.58,-140.32"/>
<polygon fill="red" stroke="red" points="408.2,-137.18 397.98,-134.38 404.22,-142.94 408.2,-137.18"/>
</g>
<!-- mtdt&#45;names -->
<g id="node7" class="node">
<title>mtdt&#45;names</title>
<ellipse fill="yellow" stroke="black" cx="660" cy="-34" rx="66.09" ry="18"/>
<text text-anchor="middle" x="660" y="-30.3" font-family="Times,serif" font-size="14.00">mtdt&#45;names</text>
</g>
<!-- ebdb&#45;&gt;mtdt&#45;names -->
<g id="edge9" class="edge">
<title>ebdb&#45;&gt;mtdt&#45;names</title>
<path fill="none" stroke="darkgreen" d="M416.5,-101.76C429.55,-97.61 444.25,-93.52 458,-91 513.63,-80.81 531.25,-100.58 585,-83 601.99,-77.44 618.94,-67.11 632.42,-57.45"/>
<polygon fill="darkgreen" stroke="darkgreen" points="634.8,-60.03 640.74,-51.25 630.62,-54.42 634.8,-60.03"/>
</g>
<!-- mtdt&#45;addressBook -->
<g id="node8" class="node">
<title>mtdt&#45;addressBook</title>
<ellipse fill="yellow" stroke="black" cx="480" cy="-34" rx="95.58" ry="18"/>
<text text-anchor="middle" x="480" y="-30.3" font-family="Times,serif" font-size="14.00">mtdt&#45;addressBook</text>
</g>
<!-- ebdb&#45;&gt;mtdt&#45;addressBook -->
<g id="edge10" class="edge">
<title>ebdb&#45;&gt;mtdt&#45;addressBook</title>
<path fill="none" stroke="darkgreen" d="M397.84,-99.61C413.1,-87.61 434,-71.18 450.9,-57.88"/>
<polygon fill="darkgreen" stroke="darkgreen" points="453.14,-60.58 458.83,-51.65 448.81,-55.08 453.14,-60.58"/>
</g>
<!-- mtdt&#45;distribution -->
<g id="node9" class="node">
<title>mtdt&#45;distribution</title>
<ellipse fill="yellow" stroke="black" cx="275" cy="-34" rx="90.98" ry="18"/>
<text text-anchor="middle" x="275" y="-30.3" font-family="Times,serif" font-size="14.00">mtdt&#45;distribution</text>
</g>
<!-- ebdb&#45;&gt;mtdt&#45;distribution -->
<g id="edge11" class="edge">
<title>ebdb&#45;&gt;mtdt&#45;distribution</title>
<path fill="none" stroke="darkgreen" d="M356.36,-99.61C341.25,-87.61 320.55,-71.18 303.82,-57.88"/>
<polygon fill="darkgreen" stroke="darkgreen" points="305.97,-55.12 295.96,-51.65 301.62,-60.6 305.97,-55.12"/>
</g>
<!-- mtdt&#45;mailings -->
<g id="node10" class="node">
<title>mtdt&#45;mailings</title>
<ellipse fill="yellow" stroke="black" cx="91" cy="-34" rx="75.29" ry="18"/>
<text text-anchor="middle" x="91" y="-30.3" font-family="Times,serif" font-size="14.00">mtdt&#45;mailings</text>
</g>
<!-- ebdb&#45;&gt;mtdt&#45;mailings -->
<g id="edge12" class="edge">
<title>ebdb&#45;&gt;mtdt&#45;mailings</title>
<path fill="none" stroke="darkgreen" d="M308.62,-110.95C268.77,-106.51 218.04,-98.25 175,-83 156.74,-76.53 137.88,-66.14 122.66,-56.68"/>
<polygon fill="darkgreen" stroke="darkgreen" points="124.48,-53.69 114.16,-51.26 120.71,-59.59 124.48,-53.69"/>
</g>
</g>
</svg>
