<?xml version="1.0" encoding="UTF-8" standalone="no"?>
<!DOCTYPE svg PUBLIC "-//W3C//DTD SVG 1.1//EN"
 "http://www.w3.org/Graphics/SVG/1.1/DTD/svg11.dtd">
<!-- Generated by graphviz version 2.43.0 (0)
 -->
<!-- Title: %3 Pages: 1 -->
<svg width="554pt" height="440pt"
 viewBox="0.00 0.00 554.00 440.00" xmlns="http://www.w3.org/2000/svg" xmlns:xlink="http://www.w3.org/1999/xlink">
<g id="graph0" class="graph" transform="scale(1 1) rotate(0) translate(4 436)">
<title>%3</title>
<polygon fill="white" stroke="transparent" points="-4,4 -4,-436 550,-436 550,4 -4,4"/>
<g id="clust1" class="cluster">
<title>cluster_linkedin</title>
<polygon fill="none" stroke="lightblue" points="208,-349 208,-424 360,-424 360,-349 208,-349"/>
<text text-anchor="middle" x="284" y="-408.8" font-family="Times,serif" font-size="14.00">www.LinkedIn.com</text>
</g>
<g id="clust2" class="cluster">
<title>cluster_exported</title>
<polygon fill="none" stroke="lightblue" points="8,-81 8,-316 538,-316 538,-81 8,-81"/>
<text text-anchor="middle" x="273" y="-300.8" font-family="Times,serif" font-size="14.00">LinkedIn Exported Info</text>
</g>
<!-- LinkedIn -->
<g id="node1" class="node">
<title>LinkedIn</title>
<ellipse fill="#b2dfee" stroke="black" cx="284" cy="-375" rx="51.19" ry="18"/>
<text text-anchor="middle" x="284" y="-371.3" font-family="Times,serif" font-size="14.00">LinkedIn</text>
</g>
<!-- Export.zip -->
<g id="node2" class="node">
<title>Export.zip</title>
<ellipse fill="lightblue" stroke="black" cx="284" cy="-267" rx="59.29" ry="18"/>
<text text-anchor="middle" x="284" y="-263.3" font-family="Times,serif" font-size="14.00">Export.zip</text>
</g>
<!-- LinkedIn&#45;&gt;Export.zip -->
<g id="edge5" class="edge">
<title>LinkedIn&#45;&gt;Export.zip</title>
<path fill="none" stroke="blue" d="M284,-356.97C284,-340.38 284,-314.88 284,-295.43"/>
<polygon fill="blue" stroke="blue" points="287.5,-295.34 284,-285.34 280.5,-295.34 287.5,-295.34"/>
<text text-anchor="middle" x="367.5" y="-327.8" font-family="Times,serif" font-size="14.00">LinkedInExportProcess</text>
</g>
<!-- ExportedData -->
<g id="node3" class="node">
<title>ExportedData</title>
<ellipse fill="lightblue" stroke="black" cx="284" cy="-180" rx="75.29" ry="18"/>
<text text-anchor="middle" x="284" y="-176.3" font-family="Times,serif" font-size="14.00">ExportedData</text>
</g>
<!-- Export.zip&#45;&gt;ExportedData -->
<g id="edge1" class="edge">
<title>Export.zip&#45;&gt;ExportedData</title>
<path fill="none" stroke="black" d="M284,-248.8C284,-237.16 284,-221.55 284,-208.24"/>
<polygon fill="black" stroke="black" points="287.5,-208.18 284,-198.18 280.5,-208.18 287.5,-208.18"/>
<text text-anchor="middle" x="304" y="-219.8" font-family="Times,serif" font-size="14.00">unzip</text>
</g>
<!-- Connections.csv -->
<g id="node4" class="node">
<title>Connections.csv</title>
<ellipse fill="lightblue" stroke="black" cx="102" cy="-107" rx="85.59" ry="18"/>
<text text-anchor="middle" x="102" y="-103.3" font-family="Times,serif" font-size="14.00">Connections.csv</text>
</g>
<!-- ExportedData&#45;&gt;Connections.csv -->
<g id="edge2" class="edge">
<title>ExportedData&#45;&gt;Connections.csv</title>
<path fill="none" stroke="black" d="M246.29,-164.29C218.48,-153.44 180.42,-138.59 150.37,-126.87"/>
<polygon fill="black" stroke="black" points="151.51,-123.56 140.92,-123.18 148.96,-130.08 151.51,-123.56"/>
</g>
<!-- Invitations.csv -->
<g id="node5" class="node">
<title>Invitations.csv</title>
<ellipse fill="lightblue" stroke="black" cx="284" cy="-107" rx="78.79" ry="18"/>
<text text-anchor="middle" x="284" y="-103.3" font-family="Times,serif" font-size="14.00">Invitations.csv</text>
</g>
<!-- ExportedData&#45;&gt;Invitations.csv -->
<g id="edge3" class="edge">
<title>ExportedData&#45;&gt;Invitations.csv</title>
<path fill="none" stroke="black" d="M284,-161.81C284,-153.79 284,-144.05 284,-135.07"/>
<polygon fill="black" stroke="black" points="287.5,-135.03 284,-125.03 280.5,-135.03 287.5,-135.03"/>
</g>
<!-- Messages.csv -->
<g id="node6" class="node">
<title>Messages.csv</title>
<ellipse fill="lightblue" stroke="black" cx="455" cy="-107" rx="74.99" ry="18"/>
<text text-anchor="middle" x="455" y="-103.3" font-family="Times,serif" font-size="14.00">Messages.csv</text>
</g>
<!-- ExportedData&#45;&gt;Messages.csv -->
<g id="edge4" class="edge">
<title>ExportedData&#45;&gt;Messages.csv</title>
<path fill="none" stroke="black" d="M319.85,-164.12C345.95,-153.28 381.51,-138.51 409.6,-126.85"/>
<polygon fill="black" stroke="black" points="411.31,-129.93 419.2,-122.86 408.62,-123.47 411.31,-129.93"/>
</g>
<!-- VCard -->
<g id="node7" class="node">
<title>VCard</title>
<polygon fill="#f2f2f2" stroke="black" points="323.5,-38 244.5,-38 244.5,0 323.5,0 323.5,-38"/>
<text text-anchor="middle" x="284" y="-22.8" font-family="Times,serif" font-size="14.00">LinkedIn</text>
<text text-anchor="middle" x="284" y="-7.8" font-family="Times,serif" font-size="14.00">VCard</text>
</g>
<!-- Connections.csv&#45;&gt;VCard -->
<g id="edge6" class="edge">
<title>Connections.csv&#45;&gt;VCard</title>
<path fill="none" stroke="black" d="M135.38,-90.23C163.78,-76.81 204.88,-57.38 236.67,-42.36"/>
<polygon fill="black" stroke="black" points="238.25,-45.49 245.79,-38.05 235.25,-39.16 238.25,-45.49"/>
<text text-anchor="middle" x="235" y="-59.8" font-family="Times,serif" font-size="14.00">generate</text>
</g>
<!-- Invitations.csv&#45;&gt;VCard -->
<g id="edge7" class="edge">
<title>Invitations.csv&#45;&gt;VCard</title>
<path fill="none" stroke="black" d="M284,-88.6C284,-77.06 284,-61.65 284,-48.36"/>
<polygon fill="black" stroke="black" points="287.5,-48.27 284,-38.27 280.5,-48.27 287.5,-48.27"/>
<text text-anchor="middle" x="316" y="-59.8" font-family="Times,serif" font-size="14.00">augment</text>
</g>
<!-- Messages.csv&#45;&gt;VCard -->
<g id="edge8" class="edge">
<title>Messages.csv&#45;&gt;VCard</title>
<path fill="none" stroke="black" d="M424.03,-90.43C397.52,-77.09 358.99,-57.72 329.06,-42.66"/>
<polygon fill="black" stroke="black" points="330.58,-39.51 320.07,-38.14 327.43,-45.76 330.58,-39.51"/>
<text text-anchor="middle" x="416" y="-59.8" font-family="Times,serif" font-size="14.00">augment</text>
</g>
</g>
</svg>
