<?xml version="1.0" encoding="UTF-8" standalone="no"?>
<!DOCTYPE svg PUBLIC "-//W3C//DTD SVG 1.1//EN"
 "http://www.w3.org/Graphics/SVG/1.1/DTD/svg11.dtd">
<!-- Generated by graphviz version 2.43.0 (0)
 -->
<!-- Title: %3 Pages: 1 -->
<svg width="708pt" height="454pt"
 viewBox="0.00 0.00 708.00 454.00" xmlns="http://www.w3.org/2000/svg" xmlns:xlink="http://www.w3.org/1999/xlink">
<g id="graph0" class="graph" transform="scale(1 1) rotate(0) translate(4 450)">
<title>%3</title>
<polygon fill="white" stroke="transparent" points="-4,4 -4,-450 704,-450 704,4 -4,4"/>
<g id="clust1" class="cluster">
<title>cluster_linkedin</title>
<polygon fill="none" stroke="lightblue" points="436,-363 436,-438 588,-438 588,-363 436,-363"/>
<text text-anchor="middle" x="512" y="-422.8" font-family="Times,serif" font-size="14.00">www.LinkedIn.com</text>
</g>
<g id="clust2" class="cluster">
<title>cluster_exported</title>
<polygon fill="none" stroke="lightblue" points="8,-81 8,-330 538,-330 538,-81 8,-81"/>
<text text-anchor="middle" x="273" y="-314.8" font-family="Times,serif" font-size="14.00">LinkedIn Exported Info</text>
</g>
<g id="clust3" class="cluster">
<title>cluster_web</title>
<polygon fill="none" stroke="lightblue" points="546,-255 546,-330 692,-330 692,-255 546,-255"/>
<text text-anchor="middle" x="619" y="-314.8" font-family="Times,serif" font-size="14.00">LinkedIn Web Info</text>
</g>
<!-- LinkedIn -->
<g id="node1" class="node">
<title>LinkedIn</title>
<ellipse fill="#b2dfee" stroke="black" cx="512" cy="-389" rx="51.19" ry="18"/>
<text text-anchor="middle" x="512" y="-385.3" font-family="Times,serif" font-size="14.00">LinkedIn</text>
</g>
<!-- Export.zip -->
<g id="node2" class="node">
<title>Export.zip</title>
<ellipse fill="lightblue" stroke="black" cx="372" cy="-281" rx="59.29" ry="18"/>
<text text-anchor="middle" x="372" y="-277.3" font-family="Times,serif" font-size="14.00">Export.zip</text>
</g>
<!-- LinkedIn&#45;&gt;Export.zip -->
<g id="edge5" class="edge">
<title>LinkedIn&#45;&gt;Export.zip</title>
<path fill="none" stroke="blue" d="M466.4,-380.69C446.65,-375.63 424.35,-367.14 408,-353 394.58,-341.39 385.57,-323.57 379.92,-308.69"/>
<polygon fill="blue" stroke="blue" points="383.12,-307.26 376.53,-298.97 376.51,-309.56 383.12,-307.26"/>
<text text-anchor="middle" x="491.5" y="-341.8" font-family="Times,serif" font-size="14.00">LinkedInExportProcess</text>
</g>
<!-- ContactInfo -->
<g id="node8" class="node">
<title>ContactInfo</title>
<ellipse fill="lightskyblue" stroke="black" cx="619" cy="-281" rx="64.99" ry="18"/>
<text text-anchor="middle" x="619" y="-277.3" font-family="Times,serif" font-size="14.00">ContactInfo</text>
</g>
<!-- LinkedIn&#45;&gt;ContactInfo -->
<g id="edge9" class="edge">
<title>LinkedIn&#45;&gt;ContactInfo</title>
<path fill="none" stroke="blue" d="M545.47,-375.19C557.04,-369.62 569.48,-362.22 579,-353 591.88,-340.52 601.81,-323 608.56,-308.48"/>
<polygon fill="blue" stroke="blue" points="611.9,-309.57 612.71,-299.01 605.49,-306.76 611.9,-309.57"/>
<text text-anchor="middle" x="629.5" y="-341.8" font-family="Times,serif" font-size="14.00">WebAccess</text>
</g>
<!-- ExportedData -->
<g id="node3" class="node">
<title>ExportedData</title>
<ellipse fill="lightblue" stroke="black" cx="298" cy="-194" rx="75.29" ry="18"/>
<text text-anchor="middle" x="298" y="-190.3" font-family="Times,serif" font-size="14.00">ExportedData</text>
</g>
<!-- Export.zip&#45;&gt;ExportedData -->
<g id="edge1" class="edge">
<title>Export.zip&#45;&gt;ExportedData</title>
<path fill="none" stroke="black" d="M357.38,-263.21C346.54,-250.75 331.58,-233.57 319.39,-219.57"/>
<polygon fill="black" stroke="black" points="321.8,-217 312.59,-211.76 316.52,-221.6 321.8,-217"/>
<text text-anchor="middle" x="359" y="-233.8" font-family="Times,serif" font-size="14.00">unzip</text>
</g>
<!-- Connections.csv -->
<g id="node4" class="node">
<title>Connections.csv</title>
<ellipse fill="lightblue" stroke="black" cx="102" cy="-107" rx="85.59" ry="18"/>
<text text-anchor="middle" x="102" y="-103.3" font-family="Times,serif" font-size="14.00">Connections.csv</text>
</g>
<!-- ExportedData&#45;&gt;Connections.csv -->
<g id="edge2" class="edge">
<title>ExportedData&#45;&gt;Connections.csv</title>
<path fill="none" stroke="black" d="M263.41,-178C231.06,-163.97 182.57,-142.94 147.18,-127.59"/>
<polygon fill="black" stroke="black" points="148.13,-124.19 137.57,-123.42 145.35,-130.61 148.13,-124.19"/>
</g>
<!-- Invitations.csv -->
<g id="node5" class="node">
<title>Invitations.csv</title>
<ellipse fill="lightblue" stroke="black" cx="284" cy="-107" rx="78.79" ry="18"/>
<text text-anchor="middle" x="284" y="-103.3" font-family="Times,serif" font-size="14.00">Invitations.csv</text>
</g>
<!-- ExportedData&#45;&gt;Invitations.csv -->
<g id="edge3" class="edge">
<title>ExportedData&#45;&gt;Invitations.csv</title>
<path fill="none" stroke="black" d="M295.17,-175.8C293.25,-164.16 290.68,-148.55 288.49,-135.24"/>
<polygon fill="black" stroke="black" points="291.91,-134.47 286.83,-125.18 285,-135.61 291.91,-134.47"/>
</g>
<!-- Messages.csv -->
<g id="node6" class="node">
<title>Messages.csv</title>
<ellipse fill="lightblue" stroke="black" cx="455" cy="-107" rx="74.99" ry="18"/>
<text text-anchor="middle" x="455" y="-103.3" font-family="Times,serif" font-size="14.00">Messages.csv</text>
</g>
<!-- ExportedData&#45;&gt;Messages.csv -->
<g id="edge4" class="edge">
<title>ExportedData&#45;&gt;Messages.csv</title>
<path fill="none" stroke="black" d="M327.16,-177.21C352.5,-163.49 389.36,-143.54 417,-128.57"/>
<polygon fill="black" stroke="black" points="418.87,-131.54 425.99,-123.7 415.53,-125.39 418.87,-131.54"/>
</g>
<!-- VCard -->
<g id="node7" class="node">
<title>VCard</title>
<polygon fill="#f2f2f2" stroke="black" points="408.5,-38 329.5,-38 329.5,0 408.5,0 408.5,-38"/>
<text text-anchor="middle" x="369" y="-22.8" font-family="Times,serif" font-size="14.00">LinkedIn</text>
<text text-anchor="middle" x="369" y="-7.8" font-family="Times,serif" font-size="14.00">VCard</text>
</g>
<!-- Connections.csv&#45;&gt;VCard -->
<g id="edge6" class="edge">
<title>Connections.csv&#45;&gt;VCard</title>
<path fill="none" stroke="black" d="M142.79,-91.08C171.29,-80.82 210.3,-67.09 245,-56 269.46,-48.18 296.86,-40.15 319.66,-33.66"/>
<polygon fill="black" stroke="black" points="320.8,-36.98 329.46,-30.89 318.89,-30.25 320.8,-36.98"/>
<text text-anchor="middle" x="277" y="-59.8" font-family="Times,serif" font-size="14.00">generate</text>
</g>
<!-- Invitations.csv&#45;&gt;VCard -->
<g id="edge7" class="edge">
<title>Invitations.csv&#45;&gt;VCard</title>
<path fill="none" stroke="black" d="M297.34,-89.23C305.54,-79.25 316.47,-66.52 327,-56 330.73,-52.28 334.79,-48.5 338.86,-44.86"/>
<polygon fill="black" stroke="black" points="341.4,-47.29 346.64,-38.08 336.8,-42.01 341.4,-47.29"/>
<text text-anchor="middle" x="359" y="-59.8" font-family="Times,serif" font-size="14.00">augment</text>
</g>
<!-- Messages.csv&#45;&gt;VCard -->
<g id="edge8" class="edge">
<title>Messages.csv&#45;&gt;VCard</title>
<path fill="none" stroke="black" d="M438.42,-89.42C425.87,-76.87 408.41,-59.41 394.14,-45.14"/>
<polygon fill="black" stroke="black" points="396.56,-42.61 387.02,-38.02 391.61,-47.56 396.56,-42.61"/>
<text text-anchor="middle" x="451" y="-59.8" font-family="Times,serif" font-size="14.00">augment</text>
</g>
<!-- ContactInfo&#45;&gt;VCard -->
<g id="edge10" class="edge">
<title>ContactInfo&#45;&gt;VCard</title>
<path fill="none" stroke="darkblue" d="M616.77,-262.77C611.07,-225.12 592.61,-134.6 542,-81 509.79,-46.88 457.35,-31.83 418.64,-25.2"/>
<polygon fill="darkblue" stroke="darkblue" points="419.04,-21.72 408.61,-23.62 417.94,-28.63 419.04,-21.72"/>
<text text-anchor="middle" x="611" y="-146.8" font-family="Times,serif" font-size="14.00">enrich</text>
</g>
</g>
</svg>
