<?xml version="1.0" encoding="UTF-8" standalone="no"?>
<!DOCTYPE svg PUBLIC "-//W3C//DTD SVG 1.1//EN"
 "http://www.w3.org/Graphics/SVG/1.1/DTD/svg11.dtd">
<!-- Generated by graphviz version 2.43.0 (0)
 -->
<!-- Title: %3 Pages: 1 -->
<svg width="554pt" height="455pt"
 viewBox="0.00 0.00 554.00 455.00" xmlns="http://www.w3.org/2000/svg" xmlns:xlink="http://www.w3.org/1999/xlink">
<g id="graph0" class="graph" transform="scale(1 1) rotate(0) translate(4 451)">
<title>%3</title>
<polygon fill="white" stroke="transparent" points="-4,4 -4,-451 550,-451 550,4 -4,4"/>
<g id="clust1" class="cluster">
<title>cluster_linkedin</title>
<polygon fill="none" stroke="lightblue" points="208,-364 208,-439 360,-439 360,-364 208,-364"/>
<text text-anchor="middle" x="284" y="-423.8" font-family="Times,serif" font-size="14.00">www.LinkedIn.com</text>
</g>
<g id="clust2" class="cluster">
<title>cluster_exported</title>
<polygon fill="none" stroke="lightblue" points="8,-96 8,-331 538,-331 538,-96 8,-96"/>
<text text-anchor="middle" x="273" y="-315.8" font-family="Times,serif" font-size="14.00">LinkedIn Exported Info</text>
</g>
<!-- LinkedIn -->
<g id="node1" class="node">
<title>LinkedIn</title>
<ellipse fill="#b2dfee" stroke="black" cx="284" cy="-390" rx="51.19" ry="18"/>
<text text-anchor="middle" x="284" y="-386.3" font-family="Times,serif" font-size="14.00">LinkedIn</text>
</g>
<!-- Export.zip -->
<g id="node2" class="node">
<title>Export.zip</title>
<ellipse fill="lightblue" stroke="black" cx="284" cy="-282" rx="59.29" ry="18"/>
<text text-anchor="middle" x="284" y="-278.3" font-family="Times,serif" font-size="14.00">Export.zip</text>
</g>
<!-- LinkedIn&#45;&gt;Export.zip -->
<g id="edge5" class="edge">
<title>LinkedIn&#45;&gt;Export.zip</title>
<path fill="none" stroke="blue" d="M284,-371.97C284,-355.38 284,-329.88 284,-310.43"/>
<polygon fill="blue" stroke="blue" points="287.5,-310.34 284,-300.34 280.5,-310.34 287.5,-310.34"/>
<text text-anchor="middle" x="367.5" y="-342.8" font-family="Times,serif" font-size="14.00">LinkedInExportProcess</text>
</g>
<!-- ExportedData -->
<g id="node3" class="node">
<title>ExportedData</title>
<ellipse fill="lightblue" stroke="black" cx="284" cy="-195" rx="75.29" ry="18"/>
<text text-anchor="middle" x="284" y="-191.3" font-family="Times,serif" font-size="14.00">ExportedData</text>
</g>
<!-- Export.zip&#45;&gt;ExportedData -->
<g id="edge1" class="edge">
<title>Export.zip&#45;&gt;ExportedData</title>
<path fill="none" stroke="black" d="M284,-263.8C284,-252.16 284,-236.55 284,-223.24"/>
<polygon fill="black" stroke="black" points="287.5,-223.18 284,-213.18 280.5,-223.18 287.5,-223.18"/>
<text text-anchor="middle" x="304" y="-234.8" font-family="Times,serif" font-size="14.00">unzip</text>
</g>
<!-- Connections.csv -->
<g id="node4" class="node">
<title>Connections.csv</title>
<ellipse fill="lightblue" stroke="black" cx="102" cy="-122" rx="85.59" ry="18"/>
<text text-anchor="middle" x="102" y="-118.3" font-family="Times,serif" font-size="14.00">Connections.csv</text>
</g>
<!-- ExportedData&#45;&gt;Connections.csv -->
<g id="edge2" class="edge">
<title>ExportedData&#45;&gt;Connections.csv</title>
<path fill="none" stroke="black" d="M246.29,-179.29C218.48,-168.44 180.42,-153.59 150.37,-141.87"/>
<polygon fill="black" stroke="black" points="151.51,-138.56 140.92,-138.18 148.96,-145.08 151.51,-138.56"/>
</g>
<!-- Invitations.csv -->
<g id="node5" class="node">
<title>Invitations.csv</title>
<ellipse fill="lightblue" stroke="black" cx="284" cy="-122" rx="78.79" ry="18"/>
<text text-anchor="middle" x="284" y="-118.3" font-family="Times,serif" font-size="14.00">Invitations.csv</text>
</g>
<!-- ExportedData&#45;&gt;Invitations.csv -->
<g id="edge3" class="edge">
<title>ExportedData&#45;&gt;Invitations.csv</title>
<path fill="none" stroke="black" d="M284,-176.81C284,-168.79 284,-159.05 284,-150.07"/>
<polygon fill="black" stroke="black" points="287.5,-150.03 284,-140.03 280.5,-150.03 287.5,-150.03"/>
</g>
<!-- Messages.csv -->
<g id="node6" class="node">
<title>Messages.csv</title>
<ellipse fill="lightblue" stroke="black" cx="455" cy="-122" rx="74.99" ry="18"/>
<text text-anchor="middle" x="455" y="-118.3" font-family="Times,serif" font-size="14.00">Messages.csv</text>
</g>
<!-- ExportedData&#45;&gt;Messages.csv -->
<g id="edge4" class="edge">
<title>ExportedData&#45;&gt;Messages.csv</title>
<path fill="none" stroke="black" d="M319.85,-179.12C345.95,-168.28 381.51,-153.51 409.6,-141.85"/>
<polygon fill="black" stroke="black" points="411.31,-144.93 419.2,-137.86 408.62,-138.47 411.31,-144.93"/>
</g>
<!-- VCard -->
<g id="node7" class="node">
<title>VCard</title>
<polygon fill="#f2f2f2" stroke="black" points="221.5,-45.5 142.5,-45.5 142.5,-7.5 221.5,-7.5 221.5,-45.5"/>
<text text-anchor="middle" x="182" y="-30.3" font-family="Times,serif" font-size="14.00">LinkedIn</text>
<text text-anchor="middle" x="182" y="-15.3" font-family="Times,serif" font-size="14.00">VCard</text>
</g>
<!-- Connections.csv&#45;&gt;VCard -->
<g id="edge6" class="edge">
<title>Connections.csv&#45;&gt;VCard</title>
<path fill="none" stroke="black" d="M116.67,-103.85C128.66,-89.84 145.8,-69.81 159.51,-53.78"/>
<polygon fill="black" stroke="black" points="162.48,-55.69 166.33,-45.82 157.17,-51.14 162.48,-55.69"/>
<text text-anchor="middle" x="177" y="-74.8" font-family="Times,serif" font-size="14.00">generate</text>
</g>
<!-- Invitations.csv&#45;&gt;VCard -->
<g id="edge7" class="edge">
<title>Invitations.csv&#45;&gt;VCard</title>
<path fill="none" stroke="black" d="M265.76,-104.28C250.16,-89.98 227.46,-69.17 209.63,-52.83"/>
<polygon fill="black" stroke="black" points="211.56,-49.85 201.82,-45.67 206.83,-55.01 211.56,-49.85"/>
<text text-anchor="middle" x="277" y="-74.8" font-family="Times,serif" font-size="14.00">augment</text>
</g>
<!-- Maildir -->
<g id="node8" class="node">
<title>Maildir</title>
<polygon fill="#bfbfbf" stroke="black" points="498.5,-53 411.5,-53 411.5,0 498.5,0 498.5,-53"/>
<text text-anchor="middle" x="455" y="-37.8" font-family="Times,serif" font-size="14.00">LinkedIn</text>
<text text-anchor="middle" x="455" y="-22.8" font-family="Times,serif" font-size="14.00">Messages</text>
<text text-anchor="middle" x="455" y="-7.8" font-family="Times,serif" font-size="14.00">Maildir</text>
</g>
<!-- Messages.csv&#45;&gt;Maildir -->
<g id="edge8" class="edge">
<title>Messages.csv&#45;&gt;Maildir</title>
<path fill="none" stroke="black" d="M455,-103.85C455,-92.51 455,-77.22 455,-63.3"/>
<polygon fill="black" stroke="black" points="458.5,-63.01 455,-53.01 451.5,-63.01 458.5,-63.01"/>
<text text-anchor="middle" x="482.5" y="-74.8" font-family="Times,serif" font-size="14.00">convert</text>
</g>
</g>
</svg>
