<?xml version="1.0" encoding="UTF-8" standalone="no"?>
<!DOCTYPE svg PUBLIC "-//W3C//DTD SVG 1.1//EN"
 "http://www.w3.org/Graphics/SVG/1.1/DTD/svg11.dtd">
<!-- Generated by graphviz version 2.43.0 (0)
 -->
<!-- Title: %3 Pages: 1 -->
<svg width="1105pt" height="489pt"
 viewBox="0.00 0.00 1105.00 488.74" xmlns="http://www.w3.org/2000/svg" xmlns:xlink="http://www.w3.org/1999/xlink">
<g id="graph0" class="graph" transform="scale(1 1) rotate(0) translate(4 484.74)">
<title>%3</title>
<polygon fill="white" stroke="transparent" points="-4,4 -4,-484.74 1101,-484.74 1101,4 -4,4"/>
<g id="clust1" class="cluster">
<title>cluster_linkedin</title>
<polygon fill="none" stroke="lightblue" points="436,-397.74 436,-472.74 588,-472.74 588,-397.74 436,-397.74"/>
<text text-anchor="middle" x="512" y="-457.54" font-family="Times,serif" font-size="14.00">www.LinkedIn.com</text>
</g>
<g id="clust2" class="cluster">
<title>cluster_exported</title>
<polygon fill="none" stroke="lightblue" points="8,-89.5 8,-355.87 538,-355.87 538,-89.5 8,-89.5"/>
<text text-anchor="middle" x="273" y="-340.67" font-family="Times,serif" font-size="14.00">LinkedIn Exported Info</text>
</g>
<g id="clust3" class="cluster">
<title>cluster_web</title>
<polygon fill="none" stroke="lightblue" points="546,-280.87 546,-355.87 692,-355.87 692,-280.87 546,-280.87"/>
<text text-anchor="middle" x="619" y="-340.67" font-family="Times,serif" font-size="14.00">LinkedIn Web Info</text>
</g>
<g id="clust4" class="cluster">
<title>cluster_external</title>
<polygon fill="linen" stroke="orange" points="700,-185 700,-364.74 1089,-364.74 1089,-185 700,-185"/>
<text text-anchor="middle" x="894.5" y="-349.54" font-family="Times,serif" font-size="14.00">External Sources</text>
</g>
<!-- LinkedIn -->
<g id="node1" class="node">
<title>LinkedIn</title>
<ellipse fill="#b2dfee" stroke="black" cx="512" cy="-423.74" rx="51.19" ry="18"/>
<text text-anchor="middle" x="512" y="-420.04" font-family="Times,serif" font-size="14.00">LinkedIn</text>
</g>
<!-- Export.zip -->
<g id="node2" class="node">
<title>Export.zip</title>
<ellipse fill="lightblue" stroke="black" cx="372" cy="-306.87" rx="59.29" ry="18"/>
<text text-anchor="middle" x="372" y="-303.17" font-family="Times,serif" font-size="14.00">Export.zip</text>
</g>
<!-- LinkedIn&#45;&gt;Export.zip -->
<g id="edge5" class="edge">
<title>LinkedIn&#45;&gt;Export.zip</title>
<path fill="none" stroke="blue" d="M465.84,-415.71C446.09,-410.7 423.96,-402.19 408,-387.74 392.69,-373.87 383.49,-352.24 378.23,-334.98"/>
<polygon fill="blue" stroke="blue" points="381.48,-333.62 375.44,-324.91 374.74,-335.49 381.48,-333.62"/>
<text text-anchor="middle" x="491.5" y="-376.54" font-family="Times,serif" font-size="14.00">LinkedInExportProcess</text>
</g>
<!-- ContactInfo -->
<g id="node8" class="node">
<title>ContactInfo</title>
<ellipse fill="lightskyblue" stroke="black" cx="619" cy="-306.87" rx="64.99" ry="18"/>
<text text-anchor="middle" x="619" y="-303.17" font-family="Times,serif" font-size="14.00">ContactInfo</text>
</g>
<!-- LinkedIn&#45;&gt;ContactInfo -->
<g id="edge9" class="edge">
<title>LinkedIn&#45;&gt;ContactInfo</title>
<path fill="none" stroke="blue" d="M546.07,-410.02C557.56,-404.49 569.8,-397.1 579,-387.74 593.59,-372.9 603.87,-351.68 610.35,-334.84"/>
<polygon fill="blue" stroke="blue" points="613.8,-335.62 613.91,-325.02 607.21,-333.24 613.8,-335.62"/>
<text text-anchor="middle" x="629.5" y="-376.54" font-family="Times,serif" font-size="14.00">WebAccess</text>
</g>
<!-- ExportedData -->
<g id="node3" class="node">
<title>ExportedData</title>
<ellipse fill="lightblue" stroke="black" cx="298" cy="-211" rx="75.29" ry="18"/>
<text text-anchor="middle" x="298" y="-207.3" font-family="Times,serif" font-size="14.00">ExportedData</text>
</g>
<!-- Export.zip&#45;&gt;ExportedData -->
<g id="edge1" class="edge">
<title>Export.zip&#45;&gt;ExportedData</title>
<path fill="none" stroke="black" d="M358.77,-289.09C347.37,-274.63 330.75,-253.55 317.77,-237.08"/>
<polygon fill="black" stroke="black" points="320.3,-234.64 311.36,-228.95 314.81,-238.97 320.3,-234.64"/>
<text text-anchor="middle" x="358" y="-250.8" font-family="Times,serif" font-size="14.00">unzip</text>
</g>
<!-- Connections.csv -->
<g id="node4" class="node">
<title>Connections.csv</title>
<ellipse fill="lightblue" stroke="black" cx="102" cy="-115.5" rx="85.59" ry="18"/>
<text text-anchor="middle" x="102" y="-111.8" font-family="Times,serif" font-size="14.00">Connections.csv</text>
</g>
<!-- ExportedData&#45;&gt;Connections.csv -->
<g id="edge2" class="edge">
<title>ExportedData&#45;&gt;Connections.csv</title>
<path fill="none" stroke="black" d="M265.63,-194.56C232.5,-178.75 180.83,-154.11 144.44,-136.74"/>
<polygon fill="black" stroke="black" points="145.6,-133.42 135.07,-132.28 142.59,-139.74 145.6,-133.42"/>
</g>
<!-- Invitations.csv -->
<g id="node5" class="node">
<title>Invitations.csv</title>
<ellipse fill="lightblue" stroke="black" cx="284" cy="-115.5" rx="78.79" ry="18"/>
<text text-anchor="middle" x="284" y="-111.8" font-family="Times,serif" font-size="14.00">Invitations.csv</text>
</g>
<!-- ExportedData&#45;&gt;Invitations.csv -->
<g id="edge3" class="edge">
<title>ExportedData&#45;&gt;Invitations.csv</title>
<path fill="none" stroke="black" d="M295.43,-192.85C293.38,-179.14 290.46,-159.67 288.09,-143.82"/>
<polygon fill="black" stroke="black" points="291.49,-142.91 286.55,-133.54 284.57,-143.95 291.49,-142.91"/>
</g>
<!-- Messages.csv -->
<g id="node6" class="node">
<title>Messages.csv</title>
<ellipse fill="lightblue" stroke="black" cx="455" cy="-115.5" rx="74.99" ry="18"/>
<text text-anchor="middle" x="455" y="-111.8" font-family="Times,serif" font-size="14.00">Messages.csv</text>
</g>
<!-- ExportedData&#45;&gt;Messages.csv -->
<g id="edge4" class="edge">
<title>ExportedData&#45;&gt;Messages.csv</title>
<path fill="none" stroke="black" d="M324.63,-194.14C350.68,-178.62 390.53,-154.9 419.31,-137.75"/>
<polygon fill="black" stroke="black" points="421.44,-140.56 428.24,-132.44 417.85,-134.55 421.44,-140.56"/>
</g>
<!-- VCard -->
<g id="node7" class="node">
<title>VCard</title>
<polygon fill="#f2f2f2" stroke="black" points="494.5,-38 415.5,-38 415.5,0 494.5,0 494.5,-38"/>
<text text-anchor="middle" x="455" y="-22.8" font-family="Times,serif" font-size="14.00">LinkedIn</text>
<text text-anchor="middle" x="455" y="-7.8" font-family="Times,serif" font-size="14.00">VCard</text>
</g>
<!-- Connections.csv&#45;&gt;VCard -->
<g id="edge6" class="edge">
<title>Connections.csv&#45;&gt;VCard</title>
<path fill="none" stroke="black" d="M146.34,-99.94C185.08,-87.48 242.95,-69.46 294,-56 331.11,-46.21 373.48,-36.81 405.44,-30.07"/>
<polygon fill="black" stroke="black" points="406.36,-33.45 415.43,-27.97 404.92,-26.6 406.36,-33.45"/>
<text text-anchor="middle" x="326" y="-59.8" font-family="Times,serif" font-size="14.00">generate</text>
</g>
<!-- Invitations.csv&#45;&gt;VCard -->
<g id="edge7" class="edge">
<title>Invitations.csv&#45;&gt;VCard</title>
<path fill="none" stroke="black" d="M311.85,-98.38C332.51,-86.51 361.4,-70.04 387,-56 394.83,-51.71 403.2,-47.2 411.31,-42.89"/>
<polygon fill="black" stroke="black" points="413.11,-45.89 420.3,-38.12 409.83,-39.71 413.11,-45.89"/>
<text text-anchor="middle" x="419" y="-59.8" font-family="Times,serif" font-size="14.00">augment</text>
</g>
<!-- Messages.csv&#45;&gt;VCard -->
<g id="edge8" class="edge">
<title>Messages.csv&#45;&gt;VCard</title>
<path fill="none" stroke="black" d="M455,-97.17C455,-83.57 455,-64.37 455,-48.52"/>
<polygon fill="black" stroke="black" points="458.5,-48.19 455,-38.19 451.5,-48.19 458.5,-48.19"/>
<text text-anchor="middle" x="487" y="-59.8" font-family="Times,serif" font-size="14.00">augment</text>
</g>
<!-- ContactInfo&#45;&gt;VCard -->
<g id="edge10" class="edge">
<title>ContactInfo&#45;&gt;VCard</title>
<path fill="none" stroke="darkblue" d="M617.33,-288.61C612.07,-243.77 591.88,-122.48 523,-56 517.26,-50.46 510.49,-45.54 503.49,-41.26"/>
<polygon fill="darkblue" stroke="darkblue" points="504.98,-38.08 494.55,-36.17 501.51,-44.16 504.98,-38.08"/>
<text text-anchor="middle" x="616" y="-163.8" font-family="Times,serif" font-size="14.00">enrich</text>
</g>
<!-- External -->
<g id="node9" class="node">
<title>External</title>
<ellipse fill="mistyrose" stroke="black" cx="1029" cy="-306.87" rx="51.99" ry="18"/>
<text text-anchor="middle" x="1029" y="-303.17" font-family="Times,serif" font-size="14.00">Web Info</text>
</g>
<!-- ExternalInfo -->
<g id="node12" class="node">
<title>ExternalInfo</title>
<ellipse fill="mistyrose" stroke="black" cx="842" cy="-211" rx="68.79" ry="18"/>
<text text-anchor="middle" x="842" y="-207.3" font-family="Times,serif" font-size="14.00">ExternalInfo</text>
</g>
<!-- External&#45;&gt;ExternalInfo -->
<g id="edge11" class="edge">
<title>External&#45;&gt;ExternalInfo</title>
<path fill="none" stroke="orangered" d="M1000.6,-291.61C968.9,-275.7 917.37,-249.84 881.7,-231.93"/>
<polygon fill="orangered" stroke="orangered" points="883.04,-228.69 872.54,-227.33 879.9,-234.94 883.04,-228.69"/>
</g>
<!-- ExtAddrBook -->
<g id="node10" class="node">
<title>ExtAddrBook</title>
<ellipse fill="mistyrose" stroke="black" cx="907" cy="-306.87" rx="52.15" ry="26.74"/>
<text text-anchor="middle" x="907" y="-310.67" font-family="Times,serif" font-size="14.00">Address</text>
<text text-anchor="middle" x="907" y="-295.67" font-family="Times,serif" font-size="14.00">Book</text>
</g>
<!-- ExtAddrBook&#45;&gt;ExternalInfo -->
<g id="edge12" class="edge">
<title>ExtAddrBook&#45;&gt;ExternalInfo</title>
<path fill="none" stroke="orangered" d="M889.92,-281.21C880.54,-267.66 868.93,-250.89 859.49,-237.25"/>
<polygon fill="orangered" stroke="orangered" points="862.21,-235.04 853.64,-228.81 856.45,-239.02 862.21,-235.04"/>
</g>
<!-- ExtTags -->
<g id="node11" class="node">
<title>ExtTags</title>
<ellipse fill="mistyrose" stroke="black" cx="772" cy="-306.87" rx="64.19" ry="26.74"/>
<text text-anchor="middle" x="772" y="-310.67" font-family="Times,serif" font-size="14.00">Tags</text>
<text text-anchor="middle" x="772" y="-295.67" font-family="Times,serif" font-size="14.00">Groupings</text>
</g>
<!-- ExtTags&#45;&gt;ExternalInfo -->
<g id="edge13" class="edge">
<title>ExtTags&#45;&gt;ExternalInfo</title>
<path fill="none" stroke="orangered" d="M790.76,-280.71C800.79,-267.26 813.11,-250.74 823.16,-237.27"/>
<polygon fill="orangered" stroke="orangered" points="826.21,-239.03 829.38,-228.92 820.6,-234.84 826.21,-239.03"/>
</g>
<!-- VCardPlus -->
<g id="node13" class="node">
<title>VCardPlus</title>
<polygon fill="#d9d9d9" stroke="black" points="771.5,-142 692.5,-142 692.5,-89 771.5,-89 771.5,-142"/>
<text text-anchor="middle" x="732" y="-126.8" font-family="Times,serif" font-size="14.00">Plus</text>
<text text-anchor="middle" x="732" y="-111.8" font-family="Times,serif" font-size="14.00">LinkedIn</text>
<text text-anchor="middle" x="732" y="-96.8" font-family="Times,serif" font-size="14.00">VCard</text>
</g>
<!-- ExternalInfo&#45;&gt;VCardPlus -->
<g id="edge14" class="edge">
<title>ExternalInfo&#45;&gt;VCardPlus</title>
<path fill="none" stroke="red" d="M822.59,-193.5C808.15,-181.22 787.97,-164.07 770.32,-149.07"/>
<polygon fill="red" stroke="red" points="772.31,-146.17 762.42,-142.36 767.77,-151.5 772.31,-146.17"/>
</g>
<!-- VCardPlus&#45;&gt;VCard -->
<g id="edge15" class="edge">
<title>VCardPlus&#45;&gt;VCard</title>
<path fill="none" stroke="darkgreen" stroke-dasharray="5,2" d="M682.95,-89.17C659.75,-77.91 631.41,-65.15 605,-56 572.29,-44.66 534.37,-35.6 504.84,-29.4"/>
<polygon fill="darkgreen" stroke="darkgreen" points="681.7,-92.46 692.22,-93.73 684.79,-86.18 681.7,-92.46"/>
<polygon fill="darkgreen" stroke="darkgreen" points="505.27,-25.91 494.77,-27.33 503.86,-32.77 505.27,-25.91"/>
<text text-anchor="middle" x="675" y="-59.8" font-family="Times,serif" font-size="14.00">Cross Ref</text>
</g>
</g>
</svg>
