<?xml version="1.0" encoding="UTF-8" standalone="no"?>
<!DOCTYPE svg PUBLIC "-//W3C//DTD SVG 1.1//EN"
 "http://www.w3.org/Graphics/SVG/1.1/DTD/svg11.dtd">
<!-- Generated by graphviz version 2.43.0 (0)
 -->
<!-- Title: %3 Pages: 1 -->
<svg width="1106pt" height="504pt"
 viewBox="0.00 0.00 1106.00 503.74" xmlns="http://www.w3.org/2000/svg" xmlns:xlink="http://www.w3.org/1999/xlink">
<g id="graph0" class="graph" transform="scale(1 1) rotate(0) translate(4 499.74)">
<title>%3</title>
<polygon fill="white" stroke="transparent" points="-4,4 -4,-499.74 1102,-499.74 1102,4 -4,4"/>
<g id="clust1" class="cluster">
<title>cluster_linkedin</title>
<polygon fill="none" stroke="lightblue" points="436,-412.74 436,-487.74 588,-487.74 588,-412.74 436,-412.74"/>
<text text-anchor="middle" x="512" y="-472.54" font-family="Times,serif" font-size="14.00">www.LinkedIn.com</text>
</g>
<g id="clust2" class="cluster">
<title>cluster_exported</title>
<polygon fill="none" stroke="lightblue" points="8,-104.5 8,-370.87 539,-370.87 539,-104.5 8,-104.5"/>
<text text-anchor="middle" x="273.5" y="-355.67" font-family="Times,serif" font-size="14.00">LinkedIn Exported Info</text>
</g>
<g id="clust3" class="cluster">
<title>cluster_web</title>
<polygon fill="none" stroke="lightblue" points="547,-295.87 547,-370.87 693,-370.87 693,-295.87 547,-295.87"/>
<text text-anchor="middle" x="620" y="-355.67" font-family="Times,serif" font-size="14.00">LinkedIn Web Info</text>
</g>
<g id="clust4" class="cluster">
<title>cluster_external</title>
<polygon fill="linen" stroke="orange" points="701,-200 701,-379.74 1090,-379.74 1090,-200 701,-200"/>
<text text-anchor="middle" x="895.5" y="-364.54" font-family="Times,serif" font-size="14.00">External Sources</text>
</g>
<!-- LinkedIn -->
<g id="node1" class="node">
<title>LinkedIn</title>
<ellipse fill="#b2dfee" stroke="black" cx="512" cy="-438.74" rx="51.19" ry="18"/>
<text text-anchor="middle" x="512" y="-435.04" font-family="Times,serif" font-size="14.00">LinkedIn</text>
</g>
<!-- Export.zip -->
<g id="node2" class="node">
<title>Export.zip</title>
<ellipse fill="lightblue" stroke="black" cx="367" cy="-321.87" rx="59.29" ry="18"/>
<text text-anchor="middle" x="367" y="-318.17" font-family="Times,serif" font-size="14.00">Export.zip</text>
</g>
<!-- LinkedIn&#45;&gt;Export.zip -->
<g id="edge5" class="edge">
<title>LinkedIn&#45;&gt;Export.zip</title>
<path fill="none" stroke="blue" d="M465.94,-430.56C445.99,-425.52 423.48,-417.02 407,-402.74 390.93,-388.82 380.6,-366.9 374.47,-349.54"/>
<polygon fill="blue" stroke="blue" points="377.77,-348.37 371.34,-339.95 371.12,-350.54 377.77,-348.37"/>
<text text-anchor="middle" x="490.5" y="-391.54" font-family="Times,serif" font-size="14.00">LinkedInExportProcess</text>
</g>
<!-- ContactInfo -->
<g id="node9" class="node">
<title>ContactInfo</title>
<ellipse fill="lightskyblue" stroke="black" cx="620" cy="-321.87" rx="64.99" ry="18"/>
<text text-anchor="middle" x="620" y="-318.17" font-family="Times,serif" font-size="14.00">ContactInfo</text>
</g>
<!-- LinkedIn&#45;&gt;ContactInfo -->
<g id="edge9" class="edge">
<title>LinkedIn&#45;&gt;ContactInfo</title>
<path fill="none" stroke="blue" d="M545.46,-424.82C556.77,-419.28 568.84,-411.93 578,-402.74 592.98,-387.71 603.86,-366.23 610.79,-349.33"/>
<polygon fill="blue" stroke="blue" points="614.06,-350.58 614.42,-340 607.53,-348.05 614.06,-350.58"/>
<text text-anchor="middle" x="628.5" y="-391.54" font-family="Times,serif" font-size="14.00">WebAccess</text>
</g>
<!-- ExportedData -->
<g id="node3" class="node">
<title>ExportedData</title>
<ellipse fill="lightblue" stroke="black" cx="285" cy="-226" rx="75.29" ry="18"/>
<text text-anchor="middle" x="285" y="-222.3" font-family="Times,serif" font-size="14.00">ExportedData</text>
</g>
<!-- Export.zip&#45;&gt;ExportedData -->
<g id="edge1" class="edge">
<title>Export.zip&#45;&gt;ExportedData</title>
<path fill="none" stroke="black" d="M352.34,-304.09C339.59,-289.5 320.95,-268.16 306.52,-251.63"/>
<polygon fill="black" stroke="black" points="309.02,-249.18 299.81,-243.95 303.75,-253.79 309.02,-249.18"/>
<text text-anchor="middle" x="348" y="-265.8" font-family="Times,serif" font-size="14.00">unzip</text>
</g>
<!-- Connections.csv -->
<g id="node4" class="node">
<title>Connections.csv</title>
<ellipse fill="lightblue" stroke="black" cx="270" cy="-130.5" rx="85.59" ry="18"/>
<text text-anchor="middle" x="270" y="-126.8" font-family="Times,serif" font-size="14.00">Connections.csv</text>
</g>
<!-- ExportedData&#45;&gt;Connections.csv -->
<g id="edge2" class="edge">
<title>ExportedData&#45;&gt;Connections.csv</title>
<path fill="none" stroke="black" d="M282.25,-207.85C280.05,-194.14 276.93,-174.67 274.38,-158.82"/>
<polygon fill="black" stroke="black" points="277.77,-157.86 272.73,-148.54 270.86,-158.97 277.77,-157.86"/>
</g>
<!-- Invitations.csv -->
<g id="node5" class="node">
<title>Invitations.csv</title>
<ellipse fill="lightblue" stroke="black" cx="452" cy="-130.5" rx="78.79" ry="18"/>
<text text-anchor="middle" x="452" y="-126.8" font-family="Times,serif" font-size="14.00">Invitations.csv</text>
</g>
<!-- ExportedData&#45;&gt;Invitations.csv -->
<g id="edge3" class="edge">
<title>ExportedData&#45;&gt;Invitations.csv</title>
<path fill="none" stroke="black" d="M313.33,-209.14C341.16,-193.56 383.79,-169.69 414.44,-152.53"/>
<polygon fill="black" stroke="black" points="416.52,-155.38 423.53,-147.44 413.1,-149.27 416.52,-155.38"/>
</g>
<!-- Messages.csv -->
<g id="node6" class="node">
<title>Messages.csv</title>
<ellipse fill="lightblue" stroke="black" cx="91" cy="-130.5" rx="74.99" ry="18"/>
<text text-anchor="middle" x="91" y="-126.8" font-family="Times,serif" font-size="14.00">Messages.csv</text>
</g>
<!-- ExportedData&#45;&gt;Messages.csv -->
<g id="edge4" class="edge">
<title>ExportedData&#45;&gt;Messages.csv</title>
<path fill="none" stroke="black" d="M252.96,-209.56C219.87,-193.61 168.1,-168.66 132.03,-151.27"/>
<polygon fill="black" stroke="black" points="133.29,-148 122.76,-146.81 130.25,-154.3 133.29,-148"/>
</g>
<!-- VCard -->
<g id="node7" class="node">
<title>VCard</title>
<polygon fill="#f2f2f2" stroke="black" points="576.5,-45.5 497.5,-45.5 497.5,-7.5 576.5,-7.5 576.5,-45.5"/>
<text text-anchor="middle" x="537" y="-30.3" font-family="Times,serif" font-size="14.00">LinkedIn</text>
<text text-anchor="middle" x="537" y="-15.3" font-family="Times,serif" font-size="14.00">VCard</text>
</g>
<!-- Connections.csv&#45;&gt;VCard -->
<g id="edge6" class="edge">
<title>Connections.csv&#45;&gt;VCard</title>
<path fill="none" stroke="black" d="M308.75,-114.36C339.23,-102.48 382.78,-85.57 421,-71 442.95,-62.63 467.28,-53.49 487.97,-45.75"/>
<polygon fill="black" stroke="black" points="489.36,-48.97 497.5,-42.19 486.91,-42.41 489.36,-48.97"/>
<text text-anchor="middle" x="453" y="-74.8" font-family="Times,serif" font-size="14.00">generate</text>
</g>
<!-- Invitations.csv&#45;&gt;VCard -->
<g id="edge7" class="edge">
<title>Invitations.csv&#45;&gt;VCard</title>
<path fill="none" stroke="black" d="M466.04,-112.66C479.43,-96.59 499.79,-72.15 515.28,-53.57"/>
<polygon fill="black" stroke="black" points="518.08,-55.67 521.79,-45.75 512.7,-51.19 518.08,-55.67"/>
<text text-anchor="middle" x="531" y="-74.8" font-family="Times,serif" font-size="14.00">augment</text>
</g>
<!-- Maildir -->
<g id="node8" class="node">
<title>Maildir</title>
<polygon fill="#bfbfbf" stroke="black" points="134.5,-53 47.5,-53 47.5,0 134.5,0 134.5,-53"/>
<text text-anchor="middle" x="91" y="-37.8" font-family="Times,serif" font-size="14.00">LinkedIn</text>
<text text-anchor="middle" x="91" y="-22.8" font-family="Times,serif" font-size="14.00">Messages</text>
<text text-anchor="middle" x="91" y="-7.8" font-family="Times,serif" font-size="14.00">Maildir</text>
</g>
<!-- Messages.csv&#45;&gt;Maildir -->
<g id="edge8" class="edge">
<title>Messages.csv&#45;&gt;Maildir</title>
<path fill="none" stroke="black" d="M91,-112.2C91,-98.96 91,-80.23 91,-63.75"/>
<polygon fill="black" stroke="black" points="94.5,-63.33 91,-53.33 87.5,-63.33 94.5,-63.33"/>
<text text-anchor="middle" x="118.5" y="-74.8" font-family="Times,serif" font-size="14.00">convert</text>
</g>
<!-- ContactInfo&#45;&gt;VCard -->
<g id="edge10" class="edge">
<title>ContactInfo&#45;&gt;VCard</title>
<path fill="none" stroke="darkblue" d="M618.7,-303.81C615.06,-262.36 602.58,-153.69 567,-71 564.54,-65.28 561.27,-59.53 557.8,-54.17"/>
<polygon fill="darkblue" stroke="darkblue" points="560.44,-51.84 551.87,-45.6 554.68,-55.82 560.44,-51.84"/>
<text text-anchor="middle" x="625" y="-178.8" font-family="Times,serif" font-size="14.00">enrich</text>
</g>
<!-- External -->
<g id="node10" class="node">
<title>External</title>
<ellipse fill="mistyrose" stroke="black" cx="1030" cy="-321.87" rx="51.99" ry="18"/>
<text text-anchor="middle" x="1030" y="-318.17" font-family="Times,serif" font-size="14.00">Web Info</text>
</g>
<!-- ExternalInfo -->
<g id="node13" class="node">
<title>ExternalInfo</title>
<ellipse fill="mistyrose" stroke="black" cx="848" cy="-226" rx="68.79" ry="18"/>
<text text-anchor="middle" x="848" y="-222.3" font-family="Times,serif" font-size="14.00">ExternalInfo</text>
</g>
<!-- External&#45;&gt;ExternalInfo -->
<g id="edge11" class="edge">
<title>External&#45;&gt;ExternalInfo</title>
<path fill="none" stroke="orangered" d="M1002.36,-306.61C971.5,-290.7 921.36,-264.84 886.63,-246.93"/>
<polygon fill="orangered" stroke="orangered" points="888.21,-243.8 877.72,-242.33 885,-250.02 888.21,-243.8"/>
</g>
<!-- ExtAddrBook -->
<g id="node11" class="node">
<title>ExtAddrBook</title>
<ellipse fill="mistyrose" stroke="black" cx="908" cy="-321.87" rx="52.15" ry="26.74"/>
<text text-anchor="middle" x="908" y="-325.67" font-family="Times,serif" font-size="14.00">Address</text>
<text text-anchor="middle" x="908" y="-310.67" font-family="Times,serif" font-size="14.00">Book</text>
</g>
<!-- ExtAddrBook&#45;&gt;ExternalInfo -->
<g id="edge12" class="edge">
<title>ExtAddrBook&#45;&gt;ExternalInfo</title>
<path fill="none" stroke="orangered" d="M892.24,-296.21C883.58,-282.66 872.86,-265.89 864.14,-252.25"/>
<polygon fill="orangered" stroke="orangered" points="867.08,-250.35 858.74,-243.81 861.18,-254.12 867.08,-250.35"/>
</g>
<!-- ExtTags -->
<g id="node12" class="node">
<title>ExtTags</title>
<ellipse fill="mistyrose" stroke="black" cx="773" cy="-321.87" rx="64.19" ry="26.74"/>
<text text-anchor="middle" x="773" y="-325.67" font-family="Times,serif" font-size="14.00">Tags</text>
<text text-anchor="middle" x="773" y="-310.67" font-family="Times,serif" font-size="14.00">Groupings</text>
</g>
<!-- ExtTags&#45;&gt;ExternalInfo -->
<g id="edge13" class="edge">
<title>ExtTags&#45;&gt;ExternalInfo</title>
<path fill="none" stroke="orangered" d="M792.71,-296.21C803.63,-282.53 817.18,-265.57 828.13,-251.87"/>
<polygon fill="orangered" stroke="orangered" points="831.06,-253.81 834.57,-243.81 825.59,-249.44 831.06,-253.81"/>
</g>
<!-- VCardPlus -->
<g id="node14" class="node">
<title>VCardPlus</title>
<polygon fill="#d9d9d9" stroke="black" points="772.5,-157 693.5,-157 693.5,-104 772.5,-104 772.5,-157"/>
<text text-anchor="middle" x="733" y="-141.8" font-family="Times,serif" font-size="14.00">Plus</text>
<text text-anchor="middle" x="733" y="-126.8" font-family="Times,serif" font-size="14.00">LinkedIn</text>
<text text-anchor="middle" x="733" y="-111.8" font-family="Times,serif" font-size="14.00">VCard</text>
</g>
<!-- ExternalInfo&#45;&gt;VCardPlus -->
<g id="edge14" class="edge">
<title>ExternalInfo&#45;&gt;VCardPlus</title>
<path fill="none" stroke="red" d="M827.97,-208.71C812.65,-196.26 791.06,-178.7 772.33,-163.47"/>
<polygon fill="red" stroke="red" points="774.47,-160.7 764.5,-157.11 770.05,-166.14 774.47,-160.7"/>
</g>
<!-- VCardPlus&#45;&gt;VCard -->
<g id="edge15" class="edge">
<title>VCardPlus&#45;&gt;VCard</title>
<path fill="none" stroke="darkgreen" stroke-dasharray="5,2" d="M684.25,-104.13C652.54,-87.63 611.54,-66.29 580.85,-50.32"/>
<polygon fill="darkgreen" stroke="darkgreen" points="682.85,-107.35 693.34,-108.86 686.08,-101.14 682.85,-107.35"/>
<polygon fill="darkgreen" stroke="darkgreen" points="582.17,-47.06 571.68,-45.55 578.94,-53.27 582.17,-47.06"/>
<text text-anchor="middle" x="681" y="-74.8" font-family="Times,serif" font-size="14.00">Cross Ref</text>
</g>
</g>
</svg>
