<?xml version="1.0" encoding="UTF-8" standalone="no"?>
<!DOCTYPE svg PUBLIC "-//W3C//DTD SVG 1.1//EN"
 "http://www.w3.org/Graphics/SVG/1.1/DTD/svg11.dtd">
<!-- Generated by graphviz version 2.43.0 (0)
 -->
<!-- Title: %3 Pages: 1 -->
<svg width="708pt" height="469pt"
 viewBox="0.00 0.00 708.00 469.00" xmlns="http://www.w3.org/2000/svg" xmlns:xlink="http://www.w3.org/1999/xlink">
<g id="graph0" class="graph" transform="scale(1 1) rotate(0) translate(4 465)">
<title>%3</title>
<polygon fill="white" stroke="transparent" points="-4,4 -4,-465 704,-465 704,4 -4,4"/>
<g id="clust1" class="cluster">
<title>cluster_linkedin</title>
<polygon fill="none" stroke="lightblue" points="434,-378 434,-453 586,-453 586,-378 434,-378"/>
<text text-anchor="middle" x="510" y="-437.8" font-family="Times,serif" font-size="14.00">www.LinkedIn.com</text>
</g>
<g id="clust2" class="cluster">
<title>cluster_exported</title>
<polygon fill="none" stroke="lightblue" points="8,-96 8,-345 538,-345 538,-96 8,-96"/>
<text text-anchor="middle" x="273" y="-329.8" font-family="Times,serif" font-size="14.00">LinkedIn Exported Info</text>
</g>
<g id="clust3" class="cluster">
<title>cluster_web</title>
<polygon fill="none" stroke="lightblue" points="546,-270 546,-345 692,-345 692,-270 546,-270"/>
<text text-anchor="middle" x="619" y="-329.8" font-family="Times,serif" font-size="14.00">LinkedIn Web Info</text>
</g>
<!-- LinkedIn -->
<g id="node1" class="node">
<title>LinkedIn</title>
<ellipse fill="#b2dfee" stroke="black" cx="510" cy="-404" rx="51.19" ry="18"/>
<text text-anchor="middle" x="510" y="-400.3" font-family="Times,serif" font-size="14.00">LinkedIn</text>
</g>
<!-- Export.zip -->
<g id="node2" class="node">
<title>Export.zip</title>
<ellipse fill="lightblue" stroke="black" cx="363" cy="-296" rx="59.29" ry="18"/>
<text text-anchor="middle" x="363" y="-292.3" font-family="Times,serif" font-size="14.00">Export.zip</text>
</g>
<!-- LinkedIn&#45;&gt;Export.zip -->
<g id="edge5" class="edge">
<title>LinkedIn&#45;&gt;Export.zip</title>
<path fill="none" stroke="blue" d="M464.65,-395.34C444.73,-390.21 422.04,-381.76 405,-368 390.56,-356.34 379.97,-338.29 373.04,-323.3"/>
<polygon fill="blue" stroke="blue" points="376.2,-321.78 369.01,-314 369.78,-324.57 376.2,-321.78"/>
<text text-anchor="middle" x="488.5" y="-356.8" font-family="Times,serif" font-size="14.00">LinkedInExportProcess</text>
</g>
<!-- ContactInfo -->
<g id="node9" class="node">
<title>ContactInfo</title>
<ellipse fill="lightskyblue" stroke="black" cx="619" cy="-296" rx="64.99" ry="18"/>
<text text-anchor="middle" x="619" y="-292.3" font-family="Times,serif" font-size="14.00">ContactInfo</text>
</g>
<!-- LinkedIn&#45;&gt;ContactInfo -->
<g id="edge9" class="edge">
<title>LinkedIn&#45;&gt;ContactInfo</title>
<path fill="none" stroke="blue" d="M542.81,-389.94C554.2,-384.34 566.48,-377 576,-368 589.41,-355.34 600.15,-337.59 607.55,-323.01"/>
<polygon fill="blue" stroke="blue" points="610.72,-324.5 611.92,-313.97 604.42,-321.45 610.72,-324.5"/>
<text text-anchor="middle" x="627.5" y="-356.8" font-family="Times,serif" font-size="14.00">WebAccess</text>
</g>
<!-- ExportedData -->
<g id="node3" class="node">
<title>ExportedData</title>
<ellipse fill="lightblue" stroke="black" cx="277" cy="-209" rx="75.29" ry="18"/>
<text text-anchor="middle" x="277" y="-205.3" font-family="Times,serif" font-size="14.00">ExportedData</text>
</g>
<!-- Export.zip&#45;&gt;ExportedData -->
<g id="edge1" class="edge">
<title>Export.zip&#45;&gt;ExportedData</title>
<path fill="none" stroke="black" d="M346.42,-278.61C333.53,-265.88 315.48,-248.03 301.02,-233.74"/>
<polygon fill="black" stroke="black" points="303.4,-231.17 293.82,-226.63 298.48,-236.15 303.4,-231.17"/>
<text text-anchor="middle" x="345" y="-248.8" font-family="Times,serif" font-size="14.00">unzip</text>
</g>
<!-- Connections.csv -->
<g id="node4" class="node">
<title>Connections.csv</title>
<ellipse fill="lightblue" stroke="black" cx="444" cy="-122" rx="85.59" ry="18"/>
<text text-anchor="middle" x="444" y="-118.3" font-family="Times,serif" font-size="14.00">Connections.csv</text>
</g>
<!-- ExportedData&#45;&gt;Connections.csv -->
<g id="edge2" class="edge">
<title>ExportedData&#45;&gt;Connections.csv</title>
<path fill="none" stroke="black" d="M307.63,-192.41C334.57,-178.7 373.97,-158.65 403.5,-143.61"/>
<polygon fill="black" stroke="black" points="405.39,-146.58 412.71,-138.92 402.21,-140.34 405.39,-146.58"/>
</g>
<!-- Invitations.csv -->
<g id="node5" class="node">
<title>Invitations.csv</title>
<ellipse fill="lightblue" stroke="black" cx="262" cy="-122" rx="78.79" ry="18"/>
<text text-anchor="middle" x="262" y="-118.3" font-family="Times,serif" font-size="14.00">Invitations.csv</text>
</g>
<!-- ExportedData&#45;&gt;Invitations.csv -->
<g id="edge3" class="edge">
<title>ExportedData&#45;&gt;Invitations.csv</title>
<path fill="none" stroke="black" d="M273.96,-190.8C271.91,-179.16 269.16,-163.55 266.81,-150.24"/>
<polygon fill="black" stroke="black" points="270.22,-149.41 265.03,-140.18 263.32,-150.63 270.22,-149.41"/>
</g>
<!-- Messages.csv -->
<g id="node6" class="node">
<title>Messages.csv</title>
<ellipse fill="lightblue" stroke="black" cx="91" cy="-122" rx="74.99" ry="18"/>
<text text-anchor="middle" x="91" y="-118.3" font-family="Times,serif" font-size="14.00">Messages.csv</text>
</g>
<!-- ExportedData&#45;&gt;Messages.csv -->
<g id="edge4" class="edge">
<title>ExportedData&#45;&gt;Messages.csv</title>
<path fill="none" stroke="black" d="M243.75,-192.8C213.03,-178.77 167.23,-157.84 133.79,-142.56"/>
<polygon fill="black" stroke="black" points="134.83,-139.18 124.28,-138.21 131.92,-145.55 134.83,-139.18"/>
</g>
<!-- VCard -->
<g id="node7" class="node">
<title>VCard</title>
<polygon fill="#f2f2f2" stroke="black" points="483.5,-45.5 404.5,-45.5 404.5,-7.5 483.5,-7.5 483.5,-45.5"/>
<text text-anchor="middle" x="444" y="-30.3" font-family="Times,serif" font-size="14.00">LinkedIn</text>
<text text-anchor="middle" x="444" y="-15.3" font-family="Times,serif" font-size="14.00">VCard</text>
</g>
<!-- Connections.csv&#45;&gt;VCard -->
<g id="edge6" class="edge">
<title>Connections.csv&#45;&gt;VCard</title>
<path fill="none" stroke="black" d="M444,-103.85C444,-90.49 444,-71.64 444,-56.01"/>
<polygon fill="black" stroke="black" points="447.5,-55.82 444,-45.82 440.5,-55.82 447.5,-55.82"/>
<text text-anchor="middle" x="476" y="-74.8" font-family="Times,serif" font-size="14.00">generate</text>
</g>
<!-- Invitations.csv&#45;&gt;VCard -->
<g id="edge7" class="edge">
<title>Invitations.csv&#45;&gt;VCard</title>
<path fill="none" stroke="black" d="M292.46,-105.35C321.78,-90.29 366.45,-67.34 399.71,-50.26"/>
<polygon fill="black" stroke="black" points="401.46,-53.29 408.76,-45.6 398.27,-47.06 401.46,-53.29"/>
<text text-anchor="middle" x="390" y="-74.8" font-family="Times,serif" font-size="14.00">augment</text>
</g>
<!-- Maildir -->
<g id="node8" class="node">
<title>Maildir</title>
<polygon fill="#bfbfbf" stroke="black" points="134.5,-53 47.5,-53 47.5,0 134.5,0 134.5,-53"/>
<text text-anchor="middle" x="91" y="-37.8" font-family="Times,serif" font-size="14.00">LinkedIn</text>
<text text-anchor="middle" x="91" y="-22.8" font-family="Times,serif" font-size="14.00">Messages</text>
<text text-anchor="middle" x="91" y="-7.8" font-family="Times,serif" font-size="14.00">Maildir</text>
</g>
<!-- Messages.csv&#45;&gt;Maildir -->
<g id="edge8" class="edge">
<title>Messages.csv&#45;&gt;Maildir</title>
<path fill="none" stroke="black" d="M91,-103.85C91,-92.51 91,-77.22 91,-63.3"/>
<polygon fill="black" stroke="black" points="94.5,-63.01 91,-53.01 87.5,-63.01 94.5,-63.01"/>
<text text-anchor="middle" x="118.5" y="-74.8" font-family="Times,serif" font-size="14.00">convert</text>
</g>
<!-- ContactInfo&#45;&gt;VCard -->
<g id="edge10" class="edge">
<title>ContactInfo&#45;&gt;VCard</title>
<path fill="none" stroke="darkblue" d="M615.46,-277.89C607.33,-241.61 584.67,-155.43 542,-96 528.62,-77.37 508.54,-62.06 490.02,-50.67"/>
<polygon fill="darkblue" stroke="darkblue" points="491.77,-47.64 481.38,-45.56 488.21,-53.66 491.77,-47.64"/>
<text text-anchor="middle" x="606" y="-161.8" font-family="Times,serif" font-size="14.00">enrich</text>
</g>
</g>
</svg>
