<?xml version="1.0" encoding="UTF-8" standalone="no"?>
<!DOCTYPE svg PUBLIC "-//W3C//DTD SVG 1.1//EN"
 "http://www.w3.org/Graphics/SVG/1.1/DTD/svg11.dtd">
<!-- Generated by graphviz version 2.43.0 (0)
 -->
<!-- Title: %3 Pages: 1 -->
<svg width="1105pt" height="614pt"
 viewBox="0.00 0.00 1105.00 613.74" xmlns="http://www.w3.org/2000/svg" xmlns:xlink="http://www.w3.org/1999/xlink">
<g id="graph0" class="graph" transform="scale(1 1) rotate(0) translate(4 609.74)">
<title>%3</title>
<polygon fill="white" stroke="transparent" points="-4,4 -4,-609.74 1101,-609.74 1101,4 -4,4"/>
<g id="clust1" class="cluster">
<title>cluster_linkedin</title>
<polygon fill="none" stroke="lightblue" points="434,-522.74 434,-597.74 586,-597.74 586,-522.74 434,-522.74"/>
<text text-anchor="middle" x="510" y="-582.54" font-family="Times,serif" font-size="14.00">www.LinkedIn.com</text>
</g>
<g id="clust2" class="cluster">
<title>cluster_exported</title>
<polygon fill="none" stroke="lightblue" points="8,-214.5 8,-480.87 538,-480.87 538,-214.5 8,-214.5"/>
<text text-anchor="middle" x="273" y="-465.67" font-family="Times,serif" font-size="14.00">LinkedIn Exported Info</text>
</g>
<g id="clust3" class="cluster">
<title>cluster_web</title>
<polygon fill="none" stroke="lightblue" points="546,-405.87 546,-480.87 692,-480.87 692,-405.87 546,-405.87"/>
<text text-anchor="middle" x="619" y="-465.67" font-family="Times,serif" font-size="14.00">LinkedIn Web Info</text>
</g>
<g id="clust4" class="cluster">
<title>cluster_external</title>
<polygon fill="linen" stroke="orange" points="700,-310 700,-489.74 1089,-489.74 1089,-310 700,-310"/>
<text text-anchor="middle" x="894.5" y="-474.54" font-family="Times,serif" font-size="14.00">External Sources</text>
</g>
<g id="clust5" class="cluster">
<title>cluster_consumers</title>
<polygon fill="lightgreen" stroke="green" points="330,-8 330,-83 974,-83 974,-8 330,-8"/>
<text text-anchor="middle" x="652" y="-67.8" font-family="Times,serif" font-size="14.00">Address Book Consumers</text>
</g>
<!-- LinkedIn -->
<g id="node1" class="node">
<title>LinkedIn</title>
<ellipse fill="#b2dfee" stroke="black" cx="510" cy="-548.74" rx="51.19" ry="18"/>
<text text-anchor="middle" x="510" y="-545.04" font-family="Times,serif" font-size="14.00">LinkedIn</text>
</g>
<!-- Export.zip -->
<g id="node2" class="node">
<title>Export.zip</title>
<ellipse fill="lightblue" stroke="black" cx="363" cy="-431.87" rx="59.29" ry="18"/>
<text text-anchor="middle" x="363" y="-428.17" font-family="Times,serif" font-size="14.00">Export.zip</text>
</g>
<!-- LinkedIn&#45;&gt;Export.zip -->
<g id="edge5" class="edge">
<title>LinkedIn&#45;&gt;Export.zip</title>
<path fill="none" stroke="blue" d="M464.33,-540.47C444.34,-535.41 421.69,-526.92 405,-512.74 388.63,-498.83 377.75,-476.92 371.17,-459.56"/>
<polygon fill="blue" stroke="blue" points="374.41,-458.22 367.79,-449.96 367.81,-460.55 374.41,-458.22"/>
<text text-anchor="middle" x="488.5" y="-501.54" font-family="Times,serif" font-size="14.00">LinkedInExportProcess</text>
</g>
<!-- ContactInfo -->
<g id="node9" class="node">
<title>ContactInfo</title>
<ellipse fill="lightskyblue" stroke="black" cx="619" cy="-431.87" rx="64.99" ry="18"/>
<text text-anchor="middle" x="619" y="-428.17" font-family="Times,serif" font-size="14.00">ContactInfo</text>
</g>
<!-- LinkedIn&#45;&gt;ContactInfo -->
<g id="edge9" class="edge">
<title>LinkedIn&#45;&gt;ContactInfo</title>
<path fill="none" stroke="blue" d="M543.07,-534.94C554.48,-529.37 566.71,-521.97 576,-512.74 591.13,-497.71 602.28,-476.23 609.44,-459.33"/>
<polygon fill="blue" stroke="blue" points="612.71,-460.58 613.18,-449.99 606.21,-457.97 612.71,-460.58"/>
<text text-anchor="middle" x="626.5" y="-501.54" font-family="Times,serif" font-size="14.00">WebAccess</text>
</g>
<!-- ExportedData -->
<g id="node3" class="node">
<title>ExportedData</title>
<ellipse fill="lightblue" stroke="black" cx="277" cy="-336" rx="75.29" ry="18"/>
<text text-anchor="middle" x="277" y="-332.3" font-family="Times,serif" font-size="14.00">ExportedData</text>
</g>
<!-- Export.zip&#45;&gt;ExportedData -->
<g id="edge1" class="edge">
<title>Export.zip&#45;&gt;ExportedData</title>
<path fill="none" stroke="black" d="M347.62,-414.09C334.17,-399.4 314.46,-377.89 299.28,-361.32"/>
<polygon fill="black" stroke="black" points="301.58,-358.65 292.24,-353.64 296.42,-363.37 301.58,-358.65"/>
<text text-anchor="middle" x="342" y="-375.8" font-family="Times,serif" font-size="14.00">unzip</text>
</g>
<!-- Connections.csv -->
<g id="node4" class="node">
<title>Connections.csv</title>
<ellipse fill="lightblue" stroke="black" cx="444" cy="-240.5" rx="85.59" ry="18"/>
<text text-anchor="middle" x="444" y="-236.8" font-family="Times,serif" font-size="14.00">Connections.csv</text>
</g>
<!-- ExportedData&#45;&gt;Connections.csv -->
<g id="edge2" class="edge">
<title>ExportedData&#45;&gt;Connections.csv</title>
<path fill="none" stroke="black" d="M305.33,-319.14C333.08,-303.6 375.53,-279.83 406.16,-262.69"/>
<polygon fill="black" stroke="black" points="408.24,-265.53 415.25,-257.6 404.82,-259.43 408.24,-265.53"/>
</g>
<!-- Invitations.csv -->
<g id="node5" class="node">
<title>Invitations.csv</title>
<ellipse fill="lightblue" stroke="black" cx="262" cy="-240.5" rx="78.79" ry="18"/>
<text text-anchor="middle" x="262" y="-236.8" font-family="Times,serif" font-size="14.00">Invitations.csv</text>
</g>
<!-- ExportedData&#45;&gt;Invitations.csv -->
<g id="edge3" class="edge">
<title>ExportedData&#45;&gt;Invitations.csv</title>
<path fill="none" stroke="black" d="M274.25,-317.85C272.05,-304.14 268.93,-284.67 266.38,-268.82"/>
<polygon fill="black" stroke="black" points="269.77,-267.86 264.73,-258.54 262.86,-268.97 269.77,-267.86"/>
</g>
<!-- Messages.csv -->
<g id="node6" class="node">
<title>Messages.csv</title>
<ellipse fill="lightblue" stroke="black" cx="91" cy="-240.5" rx="74.99" ry="18"/>
<text text-anchor="middle" x="91" y="-236.8" font-family="Times,serif" font-size="14.00">Messages.csv</text>
</g>
<!-- ExportedData&#45;&gt;Messages.csv -->
<g id="edge4" class="edge">
<title>ExportedData&#45;&gt;Messages.csv</title>
<path fill="none" stroke="black" d="M246.29,-319.56C214.78,-303.73 165.64,-279.02 131.09,-261.65"/>
<polygon fill="black" stroke="black" points="132.27,-258.33 121.76,-256.96 129.12,-264.58 132.27,-258.33"/>
</g>
<!-- VCard -->
<g id="node7" class="node">
<title>VCard</title>
<polygon fill="#f2f2f2" stroke="black" points="632.5,-155.5 553.5,-155.5 553.5,-117.5 632.5,-117.5 632.5,-155.5"/>
<text text-anchor="middle" x="593" y="-140.3" font-family="Times,serif" font-size="14.00">LinkedIn</text>
<text text-anchor="middle" x="593" y="-125.3" font-family="Times,serif" font-size="14.00">VCard</text>
</g>
<!-- Connections.csv&#45;&gt;VCard -->
<g id="edge6" class="edge">
<title>Connections.csv&#45;&gt;VCard</title>
<path fill="none" stroke="black" d="M461.63,-222.79C475.11,-210.46 494.47,-193.69 513,-181 523.6,-173.74 535.53,-166.7 546.88,-160.48"/>
<polygon fill="black" stroke="black" points="548.67,-163.49 555.83,-155.68 545.36,-157.33 548.67,-163.49"/>
<text text-anchor="middle" x="545" y="-184.8" font-family="Times,serif" font-size="14.00">generate</text>
</g>
<!-- Invitations.csv&#45;&gt;VCard -->
<g id="edge7" class="edge">
<title>Invitations.csv&#45;&gt;VCard</title>
<path fill="none" stroke="black" d="M300.2,-224.67C333.02,-212.2 381.76,-194.33 425,-181 464.4,-168.86 509.68,-157.27 543.3,-149.11"/>
<polygon fill="black" stroke="black" points="544.44,-152.43 553.34,-146.69 542.8,-145.63 544.44,-152.43"/>
<text text-anchor="middle" x="457" y="-184.8" font-family="Times,serif" font-size="14.00">augment</text>
</g>
<!-- Maildir -->
<g id="node8" class="node">
<title>Maildir</title>
<polygon fill="#bfbfbf" stroke="black" points="134.5,-163 47.5,-163 47.5,-110 134.5,-110 134.5,-163"/>
<text text-anchor="middle" x="91" y="-147.8" font-family="Times,serif" font-size="14.00">LinkedIn</text>
<text text-anchor="middle" x="91" y="-132.8" font-family="Times,serif" font-size="14.00">Messages</text>
<text text-anchor="middle" x="91" y="-117.8" font-family="Times,serif" font-size="14.00">Maildir</text>
</g>
<!-- Messages.csv&#45;&gt;Maildir -->
<g id="edge8" class="edge">
<title>Messages.csv&#45;&gt;Maildir</title>
<path fill="none" stroke="black" d="M91,-222.2C91,-208.96 91,-190.23 91,-173.75"/>
<polygon fill="black" stroke="black" points="94.5,-173.33 91,-163.33 87.5,-173.33 94.5,-173.33"/>
<text text-anchor="middle" x="118.5" y="-184.8" font-family="Times,serif" font-size="14.00">convert</text>
</g>
<!-- Outlook -->
<g id="node15" class="node">
<title>Outlook</title>
<ellipse fill="palegreen" stroke="black" cx="919" cy="-34" rx="46.59" ry="18"/>
<text text-anchor="middle" x="919" y="-30.3" font-family="Times,serif" font-size="14.00">Outlook</text>
</g>
<!-- VCard&#45;&gt;Outlook -->
<g id="edge16" class="edge">
<title>VCard&#45;&gt;Outlook</title>
<path fill="none" stroke="black" d="M632.53,-134.1C686.96,-130.8 786.9,-119.79 863,-83 875.55,-76.93 887.56,-67.34 897.21,-58.32"/>
<polygon fill="black" stroke="black" points="899.7,-60.78 904.41,-51.29 894.81,-55.77 899.7,-60.78"/>
</g>
<!-- GoogleContacts -->
<g id="node16" class="node">
<title>GoogleContacts</title>
<ellipse fill="palegreen" stroke="black" cx="605" cy="-34" rx="87.18" ry="18"/>
<text text-anchor="middle" x="605" y="-30.3" font-family="Times,serif" font-size="14.00">Google Contacts</text>
</g>
<!-- VCard&#45;&gt;GoogleContacts -->
<g id="edge18" class="edge">
<title>VCard&#45;&gt;GoogleContacts</title>
<path fill="none" stroke="black" d="M595.2,-117.07C597.03,-101.77 599.65,-79.79 601.73,-62.42"/>
<polygon fill="black" stroke="black" points="605.22,-62.65 602.93,-52.31 598.27,-61.82 605.22,-62.65"/>
</g>
<!-- AppleContacts -->
<g id="node17" class="node">
<title>AppleContacts</title>
<ellipse fill="palegreen" stroke="black" cx="419" cy="-34" rx="81.49" ry="18"/>
<text text-anchor="middle" x="419" y="-30.3" font-family="Times,serif" font-size="14.00">Apple Contacts</text>
</g>
<!-- VCard&#45;&gt;AppleContacts -->
<g id="edge20" class="edge">
<title>VCard&#45;&gt;AppleContacts</title>
<path fill="none" stroke="black" d="M561.49,-117.3C531.72,-100.1 487.07,-74.32 455.7,-56.2"/>
<polygon fill="black" stroke="black" points="457.24,-53.05 446.83,-51.07 453.74,-59.11 457.24,-53.05"/>
</g>
<!-- ebdb -->
<g id="node18" class="node">
<title>ebdb</title>
<ellipse fill="palegreen" stroke="black" cx="782" cy="-34" rx="72.29" ry="18"/>
<text text-anchor="middle" x="782" y="-30.3" font-family="Times,serif" font-size="14.00">Emacs EBDB</text>
</g>
<!-- VCard&#45;&gt;ebdb -->
<g id="edge22" class="edge">
<title>VCard&#45;&gt;ebdb</title>
<path fill="none" stroke="black" d="M617.55,-117.46C630.98,-108.35 648.26,-97.81 665,-91 680.18,-84.83 685.76,-89.03 701,-83 718.24,-76.18 736.11,-65.97 750.67,-56.73"/>
<polygon fill="black" stroke="black" points="752.79,-59.52 759.26,-51.13 748.97,-53.65 752.79,-59.52"/>
</g>
<!-- ContactInfo&#45;&gt;VCard -->
<g id="edge10" class="edge">
<title>ContactInfo&#45;&gt;VCard</title>
<path fill="none" stroke="darkblue" d="M617.49,-413.83C613.19,-365.36 600.87,-226.35 595.53,-166.02"/>
<polygon fill="darkblue" stroke="darkblue" points="598.98,-165.36 594.61,-155.71 592.01,-165.98 598.98,-165.36"/>
<text text-anchor="middle" x="630" y="-288.8" font-family="Times,serif" font-size="14.00">enrich</text>
</g>
<!-- External -->
<g id="node10" class="node">
<title>External</title>
<ellipse fill="mistyrose" stroke="black" cx="1029" cy="-431.87" rx="51.99" ry="18"/>
<text text-anchor="middle" x="1029" y="-428.17" font-family="Times,serif" font-size="14.00">Web Info</text>
</g>
<!-- ExternalInfo -->
<g id="node13" class="node">
<title>ExternalInfo</title>
<ellipse fill="mistyrose" stroke="black" cx="842" cy="-336" rx="68.79" ry="18"/>
<text text-anchor="middle" x="842" y="-332.3" font-family="Times,serif" font-size="14.00">ExternalInfo</text>
</g>
<!-- External&#45;&gt;ExternalInfo -->
<g id="edge11" class="edge">
<title>External&#45;&gt;ExternalInfo</title>
<path fill="none" stroke="orangered" d="M1000.6,-416.61C968.9,-400.7 917.37,-374.84 881.7,-356.93"/>
<polygon fill="orangered" stroke="orangered" points="883.04,-353.69 872.54,-352.33 879.9,-359.94 883.04,-353.69"/>
</g>
<!-- ExtAddrBook -->
<g id="node11" class="node">
<title>ExtAddrBook</title>
<ellipse fill="mistyrose" stroke="black" cx="907" cy="-431.87" rx="52.15" ry="26.74"/>
<text text-anchor="middle" x="907" y="-435.67" font-family="Times,serif" font-size="14.00">Address</text>
<text text-anchor="middle" x="907" y="-420.67" font-family="Times,serif" font-size="14.00">Book</text>
</g>
<!-- ExtAddrBook&#45;&gt;ExternalInfo -->
<g id="edge12" class="edge">
<title>ExtAddrBook&#45;&gt;ExternalInfo</title>
<path fill="none" stroke="orangered" d="M889.92,-406.21C880.54,-392.66 868.93,-375.89 859.49,-362.25"/>
<polygon fill="orangered" stroke="orangered" points="862.21,-360.04 853.64,-353.81 856.45,-364.02 862.21,-360.04"/>
</g>
<!-- ExtTags -->
<g id="node12" class="node">
<title>ExtTags</title>
<ellipse fill="mistyrose" stroke="black" cx="772" cy="-431.87" rx="64.19" ry="26.74"/>
<text text-anchor="middle" x="772" y="-435.67" font-family="Times,serif" font-size="14.00">Tags</text>
<text text-anchor="middle" x="772" y="-420.67" font-family="Times,serif" font-size="14.00">Groupings</text>
</g>
<!-- ExtTags&#45;&gt;ExternalInfo -->
<g id="edge13" class="edge">
<title>ExtTags&#45;&gt;ExternalInfo</title>
<path fill="none" stroke="orangered" d="M790.76,-405.71C800.79,-392.26 813.11,-375.74 823.16,-362.27"/>
<polygon fill="orangered" stroke="orangered" points="826.21,-364.03 829.38,-353.92 820.6,-359.84 826.21,-364.03"/>
</g>
<!-- VCardPlus -->
<g id="node14" class="node">
<title>VCardPlus</title>
<polygon fill="#d9d9d9" stroke="black" points="805.5,-267 726.5,-267 726.5,-214 805.5,-214 805.5,-267"/>
<text text-anchor="middle" x="766" y="-251.8" font-family="Times,serif" font-size="14.00">Plus</text>
<text text-anchor="middle" x="766" y="-236.8" font-family="Times,serif" font-size="14.00">LinkedIn</text>
<text text-anchor="middle" x="766" y="-221.8" font-family="Times,serif" font-size="14.00">VCard</text>
</g>
<!-- ExternalInfo&#45;&gt;VCardPlus -->
<g id="edge14" class="edge">
<title>ExternalInfo&#45;&gt;VCardPlus</title>
<path fill="none" stroke="red" d="M828.41,-318.28C818.69,-306.32 805.26,-289.8 793.35,-275.15"/>
<polygon fill="red" stroke="red" points="795.95,-272.79 786.92,-267.24 790.51,-277.21 795.95,-272.79"/>
</g>
<!-- VCardPlus&#45;&gt;VCard -->
<g id="edge15" class="edge">
<title>VCardPlus&#45;&gt;VCard</title>
<path fill="none" stroke="darkgreen" stroke-dasharray="5,2" d="M716.3,-233.65C687.09,-228.05 650.92,-217.16 625,-196 615.08,-187.9 607.76,-175.88 602.64,-164.84"/>
<polygon fill="darkgreen" stroke="darkgreen" points="715.86,-237.12 726.32,-235.41 717.08,-230.23 715.86,-237.12"/>
<polygon fill="darkgreen" stroke="darkgreen" points="605.82,-163.36 598.71,-155.51 599.37,-166.09 605.82,-163.36"/>
<text text-anchor="middle" x="660" y="-184.8" font-family="Times,serif" font-size="14.00">Cross Ref</text>
</g>
<!-- VCardPlus&#45;&gt;Outlook -->
<g id="edge17" class="edge">
<title>VCardPlus&#45;&gt;Outlook</title>
<path fill="none" stroke="red" d="M785.38,-213.6C815.06,-173.93 871.38,-98.64 900.52,-59.71"/>
<polygon fill="red" stroke="red" points="903.45,-61.63 906.64,-51.53 897.84,-57.44 903.45,-61.63"/>
</g>
<!-- VCardPlus&#45;&gt;GoogleContacts -->
<g id="edge19" class="edge">
<title>VCardPlus&#45;&gt;GoogleContacts</title>
<path fill="none" stroke="red" d="M765.39,-213.77C763.25,-181.13 754.81,-125.01 723,-91 715.89,-83.4 710.56,-87.11 701,-83 681.94,-74.8 661.29,-64.65 644.04,-55.8"/>
<polygon fill="red" stroke="red" points="645.34,-52.53 634.85,-51.03 642.12,-58.74 645.34,-52.53"/>
</g>
<!-- VCardPlus&#45;&gt;AppleContacts -->
<g id="edge21" class="edge">
<title>VCardPlus&#45;&gt;AppleContacts</title>
<path fill="none" stroke="red" d="M748.92,-213.86C727.59,-183.98 688.21,-135.47 642,-110 589.17,-80.89 565.76,-103.41 509,-83 489.74,-76.07 469.52,-65.62 453.14,-56.23"/>
<polygon fill="red" stroke="red" points="454.86,-53.18 444.46,-51.15 451.33,-59.22 454.86,-53.18"/>
</g>
<!-- VCardPlus&#45;&gt;ebdb -->
<g id="edge23" class="edge">
<title>VCardPlus&#45;&gt;ebdb</title>
<path fill="none" stroke="red" d="M768.03,-213.6C771.07,-174.71 776.79,-101.59 779.88,-62.04"/>
<polygon fill="red" stroke="red" points="783.37,-62.31 780.66,-52.07 776.4,-61.76 783.37,-62.31"/>
</g>
</g>
</svg>
