<?xml version="1.0" encoding="UTF-8" standalone="no"?>
<!DOCTYPE svg PUBLIC "-//W3C//DTD SVG 1.1//EN"
 "http://www.w3.org/Graphics/SVG/1.1/DTD/svg11.dtd">
<!-- Generated by graphviz version 2.43.0 (0)
 -->
<!-- Title: %3 Pages: 1 -->
<svg width="1105pt" height="599pt"
 viewBox="0.00 0.00 1105.00 598.74" xmlns="http://www.w3.org/2000/svg" xmlns:xlink="http://www.w3.org/1999/xlink">
<g id="graph0" class="graph" transform="scale(1 1) rotate(0) translate(4 594.74)">
<title>%3</title>
<polygon fill="white" stroke="transparent" points="-4,4 -4,-594.74 1101,-594.74 1101,4 -4,4"/>
<g id="clust1" class="cluster">
<title>cluster_linkedin</title>
<polygon fill="none" stroke="lightblue" points="436,-507.74 436,-582.74 588,-582.74 588,-507.74 436,-507.74"/>
<text text-anchor="middle" x="512" y="-567.54" font-family="Times,serif" font-size="14.00">www.LinkedIn.com</text>
</g>
<g id="clust2" class="cluster">
<title>cluster_exported</title>
<polygon fill="none" stroke="lightblue" points="8,-199.5 8,-465.87 539,-465.87 539,-199.5 8,-199.5"/>
<text text-anchor="middle" x="273.5" y="-450.67" font-family="Times,serif" font-size="14.00">LinkedIn Exported Info</text>
</g>
<g id="clust3" class="cluster">
<title>cluster_web</title>
<polygon fill="none" stroke="lightblue" points="547,-390.87 547,-465.87 693,-465.87 693,-390.87 547,-390.87"/>
<text text-anchor="middle" x="620" y="-450.67" font-family="Times,serif" font-size="14.00">LinkedIn Web Info</text>
</g>
<g id="clust4" class="cluster">
<title>cluster_external</title>
<polygon fill="linen" stroke="orange" points="701,-295 701,-474.74 1089,-474.74 1089,-295 701,-295"/>
<text text-anchor="middle" x="895" y="-459.54" font-family="Times,serif" font-size="14.00">External Sources</text>
</g>
<g id="clust5" class="cluster">
<title>cluster_consumers</title>
<polygon fill="lightgreen" stroke="green" points="366,-8 366,-83 1010,-83 1010,-8 366,-8"/>
<text text-anchor="middle" x="688" y="-67.8" font-family="Times,serif" font-size="14.00">Address Book Consumers</text>
</g>
<!-- LinkedIn -->
<g id="node1" class="node">
<title>LinkedIn</title>
<ellipse fill="#b2dfee" stroke="black" cx="512" cy="-533.74" rx="51.19" ry="18"/>
<text text-anchor="middle" x="512" y="-530.04" font-family="Times,serif" font-size="14.00">LinkedIn</text>
</g>
<!-- Export.zip -->
<g id="node2" class="node">
<title>Export.zip</title>
<ellipse fill="lightblue" stroke="black" cx="366" cy="-416.87" rx="59.29" ry="18"/>
<text text-anchor="middle" x="366" y="-413.17" font-family="Times,serif" font-size="14.00">Export.zip</text>
</g>
<!-- LinkedIn&#45;&gt;Export.zip -->
<g id="edge5" class="edge">
<title>LinkedIn&#45;&gt;Export.zip</title>
<path fill="none" stroke="blue" d="M466.27,-525.55C446.26,-520.51 423.62,-512 407,-497.74 390.78,-483.83 380.18,-461.91 373.82,-444.55"/>
<polygon fill="blue" stroke="blue" points="377.09,-443.3 370.56,-434.95 370.47,-445.55 377.09,-443.3"/>
<text text-anchor="middle" x="490.5" y="-486.54" font-family="Times,serif" font-size="14.00">LinkedInExportProcess</text>
</g>
<!-- ContactInfo -->
<g id="node8" class="node">
<title>ContactInfo</title>
<ellipse fill="lightskyblue" stroke="black" cx="620" cy="-416.87" rx="64.99" ry="18"/>
<text text-anchor="middle" x="620" y="-413.17" font-family="Times,serif" font-size="14.00">ContactInfo</text>
</g>
<!-- LinkedIn&#45;&gt;ContactInfo -->
<g id="edge9" class="edge">
<title>LinkedIn&#45;&gt;ContactInfo</title>
<path fill="none" stroke="blue" d="M545.46,-519.82C556.77,-514.28 568.84,-506.93 578,-497.74 592.98,-482.71 603.86,-461.23 610.79,-444.33"/>
<polygon fill="blue" stroke="blue" points="614.06,-445.58 614.42,-435 607.53,-443.05 614.06,-445.58"/>
<text text-anchor="middle" x="628.5" y="-486.54" font-family="Times,serif" font-size="14.00">WebAccess</text>
</g>
<!-- ExportedData -->
<g id="node3" class="node">
<title>ExportedData</title>
<ellipse fill="lightblue" stroke="black" cx="281" cy="-321" rx="75.29" ry="18"/>
<text text-anchor="middle" x="281" y="-317.3" font-family="Times,serif" font-size="14.00">ExportedData</text>
</g>
<!-- Export.zip&#45;&gt;ExportedData -->
<g id="edge1" class="edge">
<title>Export.zip&#45;&gt;ExportedData</title>
<path fill="none" stroke="black" d="M350.8,-399.09C337.59,-384.5 318.27,-363.16 303.3,-346.63"/>
<polygon fill="black" stroke="black" points="305.66,-344.02 296.35,-338.95 300.47,-348.72 305.66,-344.02"/>
<text text-anchor="middle" x="346" y="-360.8" font-family="Times,serif" font-size="14.00">unzip</text>
</g>
<!-- Connections.csv -->
<g id="node4" class="node">
<title>Connections.csv</title>
<ellipse fill="lightblue" stroke="black" cx="445" cy="-225.5" rx="85.59" ry="18"/>
<text text-anchor="middle" x="445" y="-221.8" font-family="Times,serif" font-size="14.00">Connections.csv</text>
</g>
<!-- ExportedData&#45;&gt;Connections.csv -->
<g id="edge2" class="edge">
<title>ExportedData&#45;&gt;Connections.csv</title>
<path fill="none" stroke="black" d="M308.82,-304.14C336.07,-288.6 377.76,-264.83 407.84,-247.69"/>
<polygon fill="black" stroke="black" points="409.81,-250.59 416.77,-242.6 406.35,-244.51 409.81,-250.59"/>
</g>
<!-- Invitations.csv -->
<g id="node5" class="node">
<title>Invitations.csv</title>
<ellipse fill="lightblue" stroke="black" cx="95" cy="-225.5" rx="78.79" ry="18"/>
<text text-anchor="middle" x="95" y="-221.8" font-family="Times,serif" font-size="14.00">Invitations.csv</text>
</g>
<!-- ExportedData&#45;&gt;Invitations.csv -->
<g id="edge3" class="edge">
<title>ExportedData&#45;&gt;Invitations.csv</title>
<path fill="none" stroke="black" d="M250.29,-304.56C218.88,-288.77 169.93,-264.17 135.4,-246.81"/>
<polygon fill="black" stroke="black" points="136.58,-243.48 126.07,-242.12 133.43,-249.74 136.58,-243.48"/>
</g>
<!-- Messages.csv -->
<g id="node6" class="node">
<title>Messages.csv</title>
<ellipse fill="lightblue" stroke="black" cx="266" cy="-225.5" rx="74.99" ry="18"/>
<text text-anchor="middle" x="266" y="-221.8" font-family="Times,serif" font-size="14.00">Messages.csv</text>
</g>
<!-- ExportedData&#45;&gt;Messages.csv -->
<g id="edge4" class="edge">
<title>ExportedData&#45;&gt;Messages.csv</title>
<path fill="none" stroke="black" d="M278.25,-302.85C276.05,-289.14 272.93,-269.67 270.38,-253.82"/>
<polygon fill="black" stroke="black" points="273.77,-252.86 268.73,-243.54 266.86,-253.97 273.77,-252.86"/>
</g>
<!-- VCard -->
<g id="node7" class="node">
<title>VCard</title>
<polygon fill="#f2f2f2" stroke="black" points="604.5,-148 525.5,-148 525.5,-110 604.5,-110 604.5,-148"/>
<text text-anchor="middle" x="565" y="-132.8" font-family="Times,serif" font-size="14.00">LinkedIn</text>
<text text-anchor="middle" x="565" y="-117.8" font-family="Times,serif" font-size="14.00">VCard</text>
</g>
<!-- Connections.csv&#45;&gt;VCard -->
<g id="edge6" class="edge">
<title>Connections.csv&#45;&gt;VCard</title>
<path fill="none" stroke="black" d="M453.96,-207.55C461.4,-194.78 473.02,-177.54 487,-166 495.63,-158.87 505.9,-152.83 516.11,-147.85"/>
<polygon fill="black" stroke="black" points="517.79,-150.93 525.42,-143.58 514.87,-144.57 517.79,-150.93"/>
<text text-anchor="middle" x="519" y="-169.8" font-family="Times,serif" font-size="14.00">generate</text>
</g>
<!-- Invitations.csv&#45;&gt;VCard -->
<g id="edge7" class="edge">
<title>Invitations.csv&#45;&gt;VCard</title>
<path fill="none" stroke="black" d="M141.49,-210.8C154.58,-206.96 168.84,-202.8 182,-199 233.5,-184.13 245.53,-176.94 298,-166 373.06,-150.35 461.48,-139.98 515.37,-134.55"/>
<polygon fill="black" stroke="black" points="515.74,-138.03 525.34,-133.56 515.04,-131.06 515.74,-138.03"/>
<text text-anchor="middle" x="330" y="-169.8" font-family="Times,serif" font-size="14.00">augment</text>
</g>
<!-- Messages.csv&#45;&gt;VCard -->
<g id="edge8" class="edge">
<title>Messages.csv&#45;&gt;VCard</title>
<path fill="none" stroke="black" d="M297.97,-209.13C325.75,-196.24 367.35,-178.05 405,-166 441.34,-154.37 483.47,-145.05 515.38,-138.81"/>
<polygon fill="black" stroke="black" points="516.2,-142.22 525.36,-136.89 514.88,-135.34 516.2,-142.22"/>
<text text-anchor="middle" x="437" y="-169.8" font-family="Times,serif" font-size="14.00">augment</text>
</g>
<!-- Outlook -->
<g id="node14" class="node">
<title>Outlook</title>
<ellipse fill="palegreen" stroke="black" cx="763" cy="-34" rx="46.59" ry="18"/>
<text text-anchor="middle" x="763" y="-30.3" font-family="Times,serif" font-size="14.00">Outlook</text>
</g>
<!-- VCard&#45;&gt;Outlook -->
<g id="edge16" class="edge">
<title>VCard&#45;&gt;Outlook</title>
<path fill="none" stroke="black" d="M604.69,-119.95C634.16,-112.92 674.68,-100.98 707,-83 718.89,-76.38 730.56,-66.99 740.14,-58.27"/>
<polygon fill="black" stroke="black" points="742.78,-60.58 747.65,-51.17 737.98,-55.49 742.78,-60.58"/>
</g>
<!-- GoogleContacts -->
<g id="node15" class="node">
<title>GoogleContacts</title>
<ellipse fill="palegreen" stroke="black" cx="915" cy="-34" rx="87.18" ry="18"/>
<text text-anchor="middle" x="915" y="-30.3" font-family="Times,serif" font-size="14.00">Google Contacts</text>
</g>
<!-- VCard&#45;&gt;GoogleContacts -->
<g id="edge18" class="edge">
<title>VCard&#45;&gt;GoogleContacts</title>
<path fill="none" stroke="black" d="M604.59,-124.55C655.31,-119.33 745.44,-107.33 819,-83 839.64,-76.17 861.4,-65.6 878.98,-56.11"/>
<polygon fill="black" stroke="black" points="880.69,-59.16 887.77,-51.28 877.32,-53.03 880.69,-59.16"/>
</g>
<!-- AppleContacts -->
<g id="node16" class="node">
<title>AppleContacts</title>
<ellipse fill="palegreen" stroke="black" cx="455" cy="-34" rx="81.49" ry="18"/>
<text text-anchor="middle" x="455" y="-30.3" font-family="Times,serif" font-size="14.00">Apple Contacts</text>
</g>
<!-- VCard&#45;&gt;AppleContacts -->
<g id="edge20" class="edge">
<title>VCard&#45;&gt;AppleContacts</title>
<path fill="none" stroke="black" d="M543.53,-109.85C526.02,-95.05 501.19,-74.05 482.27,-58.06"/>
<polygon fill="black" stroke="black" points="484.47,-55.33 474.57,-51.55 479.95,-60.68 484.47,-55.33"/>
</g>
<!-- ebdb -->
<g id="node17" class="node">
<title>ebdb</title>
<ellipse fill="palegreen" stroke="black" cx="626" cy="-34" rx="72.29" ry="18"/>
<text text-anchor="middle" x="626" y="-30.3" font-family="Times,serif" font-size="14.00">Emacs EBDB</text>
</g>
<!-- VCard&#45;&gt;ebdb -->
<g id="edge22" class="edge">
<title>VCard&#45;&gt;ebdb</title>
<path fill="none" stroke="black" d="M577.05,-109.63C586.22,-95.64 598.96,-76.22 609.14,-60.7"/>
<polygon fill="black" stroke="black" points="612.24,-62.36 614.8,-52.08 606.38,-58.52 612.24,-62.36"/>
</g>
<!-- ContactInfo&#45;&gt;VCard -->
<g id="edge10" class="edge">
<title>ContactInfo&#45;&gt;VCard</title>
<path fill="none" stroke="darkblue" d="M616.72,-398.84C607.58,-351.32 581.71,-216.87 570.4,-158.09"/>
<polygon fill="darkblue" stroke="darkblue" points="573.8,-157.19 568.47,-148.03 566.92,-158.51 573.8,-157.19"/>
<text text-anchor="middle" x="617" y="-273.8" font-family="Times,serif" font-size="14.00">enrich</text>
</g>
<!-- External -->
<g id="node9" class="node">
<title>External</title>
<ellipse fill="mistyrose" stroke="black" cx="883" cy="-416.87" rx="51.99" ry="18"/>
<text text-anchor="middle" x="883" y="-413.17" font-family="Times,serif" font-size="14.00">Web Info</text>
</g>
<!-- ExternalInfo -->
<g id="node12" class="node">
<title>ExternalInfo</title>
<ellipse fill="mistyrose" stroke="black" cx="830" cy="-321" rx="68.79" ry="18"/>
<text text-anchor="middle" x="830" y="-317.3" font-family="Times,serif" font-size="14.00">ExternalInfo</text>
</g>
<!-- External&#45;&gt;ExternalInfo -->
<g id="edge11" class="edge">
<title>External&#45;&gt;ExternalInfo</title>
<path fill="none" stroke="orangered" d="M873.52,-399.09C865.51,-384.89 853.89,-364.32 844.68,-347.99"/>
<polygon fill="orangered" stroke="orangered" points="847.54,-345.94 839.57,-338.95 841.44,-349.38 847.54,-345.94"/>
</g>
<!-- ExtAddrBook -->
<g id="node10" class="node">
<title>ExtAddrBook</title>
<ellipse fill="mistyrose" stroke="black" cx="761" cy="-416.87" rx="52.15" ry="26.74"/>
<text text-anchor="middle" x="761" y="-420.67" font-family="Times,serif" font-size="14.00">Address</text>
<text text-anchor="middle" x="761" y="-405.67" font-family="Times,serif" font-size="14.00">Book</text>
</g>
<!-- ExtAddrBook&#45;&gt;ExternalInfo -->
<g id="edge12" class="edge">
<title>ExtAddrBook&#45;&gt;ExternalInfo</title>
<path fill="none" stroke="orangered" d="M779.13,-391.21C789.09,-377.66 801.41,-360.89 811.44,-347.25"/>
<polygon fill="orangered" stroke="orangered" points="814.54,-348.94 817.64,-338.81 808.9,-344.79 814.54,-348.94"/>
</g>
<!-- ExtTags -->
<g id="node11" class="node">
<title>ExtTags</title>
<ellipse fill="mistyrose" stroke="black" cx="1017" cy="-416.87" rx="64.19" ry="26.74"/>
<text text-anchor="middle" x="1017" y="-420.67" font-family="Times,serif" font-size="14.00">Tags</text>
<text text-anchor="middle" x="1017" y="-405.67" font-family="Times,serif" font-size="14.00">Groupings</text>
</g>
<!-- ExtTags&#45;&gt;ExternalInfo -->
<g id="edge13" class="edge">
<title>ExtTags&#45;&gt;ExternalInfo</title>
<path fill="none" stroke="orangered" d="M976.88,-395.73C945.14,-379.8 901.05,-357.66 869.47,-341.81"/>
<polygon fill="orangered" stroke="orangered" points="871.02,-338.67 860.51,-337.32 867.88,-344.93 871.02,-338.67"/>
</g>
<!-- VCardPlus -->
<g id="node13" class="node">
<title>VCardPlus</title>
<polygon fill="#d9d9d9" stroke="black" points="797.5,-252 718.5,-252 718.5,-199 797.5,-199 797.5,-252"/>
<text text-anchor="middle" x="758" y="-236.8" font-family="Times,serif" font-size="14.00">Plus</text>
<text text-anchor="middle" x="758" y="-221.8" font-family="Times,serif" font-size="14.00">LinkedIn</text>
<text text-anchor="middle" x="758" y="-206.8" font-family="Times,serif" font-size="14.00">VCard</text>
</g>
<!-- ExternalInfo&#45;&gt;VCardPlus -->
<g id="edge14" class="edge">
<title>ExternalInfo&#45;&gt;VCardPlus</title>
<path fill="none" stroke="red" d="M817.13,-303.28C808,-291.43 795.43,-275.1 784.22,-260.55"/>
<polygon fill="red" stroke="red" points="786.7,-258.03 777.82,-252.24 781.15,-262.3 786.7,-258.03"/>
</g>
<!-- VCardPlus&#45;&gt;VCard -->
<g id="edge15" class="edge">
<title>VCardPlus&#45;&gt;VCard</title>
<path fill="none" stroke="darkgreen" stroke-dasharray="5,2" d="M708.36,-220.04C674.86,-214.97 631.08,-204.14 599,-181 590.42,-174.81 583.37,-165.73 577.96,-156.94"/>
<polygon fill="darkgreen" stroke="darkgreen" points="708.02,-223.53 718.4,-221.44 708.98,-216.6 708.02,-223.53"/>
<polygon fill="darkgreen" stroke="darkgreen" points="580.89,-155.01 572.93,-148.02 574.8,-158.45 580.89,-155.01"/>
<text text-anchor="middle" x="634" y="-169.8" font-family="Times,serif" font-size="14.00">Cross Ref</text>
</g>
<!-- VCardPlus&#45;&gt;Outlook -->
<g id="edge17" class="edge">
<title>VCardPlus&#45;&gt;Outlook</title>
<path fill="none" stroke="red" d="M758.67,-198.94C759.61,-163.33 761.31,-99.03 762.28,-62.44"/>
<polygon fill="red" stroke="red" points="765.79,-62.12 762.55,-52.03 758.79,-61.94 765.79,-62.12"/>
</g>
<!-- VCardPlus&#45;&gt;GoogleContacts -->
<g id="edge19" class="edge">
<title>VCardPlus&#45;&gt;GoogleContacts</title>
<path fill="none" stroke="red" d="M779.17,-198.94C809.39,-162.47 864.54,-95.91 894.42,-59.83"/>
<polygon fill="red" stroke="red" points="897.41,-61.71 901.1,-51.78 892.02,-57.25 897.41,-61.71"/>
</g>
<!-- VCardPlus&#45;&gt;AppleContacts -->
<g id="edge21" class="edge">
<title>VCardPlus&#45;&gt;AppleContacts</title>
<path fill="none" stroke="red" d="M730.86,-198.79C703.18,-173.61 658.15,-135.42 614,-110 585.46,-93.57 574.91,-96.77 545,-83 527.25,-74.83 508.08,-64.78 492.01,-56"/>
<polygon fill="red" stroke="red" points="493.39,-52.76 482.95,-50.99 490.01,-58.89 493.39,-52.76"/>
</g>
<!-- VCardPlus&#45;&gt;ebdb -->
<g id="edge23" class="edge">
<title>VCardPlus&#45;&gt;ebdb</title>
<path fill="none" stroke="red" d="M750.37,-198.94C741.02,-170.52 723.13,-124.27 697,-91 686.74,-77.94 672.83,-66.1 660.04,-56.72"/>
<polygon fill="red" stroke="red" points="662.03,-53.84 651.85,-50.91 657.99,-59.55 662.03,-53.84"/>
</g>
</g>
</svg>
