<?xml version="1.0" encoding="UTF-8" standalone="no"?>
<!DOCTYPE svg PUBLIC "-//W3C//DTD SVG 1.1//EN"
 "http://www.w3.org/Graphics/SVG/1.1/DTD/svg11.dtd">
<!-- Generated by graphviz version 2.43.0 (0)
 -->
<!-- Title: %3 Pages: 1 -->
<svg width="668pt" height="152pt"
 viewBox="0.00 0.00 668.00 152.00" xmlns="http://www.w3.org/2000/svg" xmlns:xlink="http://www.w3.org/1999/xlink">
<g id="graph0" class="graph" transform="scale(1 1) rotate(0) translate(4 148)">
<title>%3</title>
<polygon fill="white" stroke="transparent" points="-4,4 -4,-148 664,-148 664,4 -4,4"/>
<g id="clust1" class="cluster">
<title>cluster_consumers</title>
<polygon fill="lightgreen" stroke="green" points="8,-8 8,-83 652,-83 652,-8 8,-8"/>
<text text-anchor="middle" x="330" y="-67.8" font-family="Times,serif" font-size="14.00">Address Book Consumers</text>
</g>
<!-- VCard -->
<g id="node1" class="node">
<title>VCard</title>
<polygon fill="#f2f2f2" stroke="black" points="342.5,-136.5 263.5,-136.5 263.5,-98.5 342.5,-98.5 342.5,-136.5"/>
<text text-anchor="middle" x="303" y="-121.3" font-family="Times,serif" font-size="14.00">LinkedIn</text>
<text text-anchor="middle" x="303" y="-106.3" font-family="Times,serif" font-size="14.00">VCard</text>
</g>
<!-- Outlook -->
<g id="node3" class="node">
<title>Outlook</title>
<ellipse fill="palegreen" stroke="black" cx="597" cy="-34" rx="46.59" ry="18"/>
<text text-anchor="middle" x="597" y="-30.3" font-family="Times,serif" font-size="14.00">Outlook</text>
</g>
<!-- VCard&#45;&gt;Outlook -->
<g id="edge1" class="edge">
<title>VCard&#45;&gt;Outlook</title>
<path fill="none" stroke="black" d="M342.59,-99.94C352.67,-96.38 363.6,-93.07 374,-91 410.44,-83.75 506.47,-96.72 541,-83 554.15,-77.78 566.37,-68.12 576.03,-58.84"/>
<polygon fill="black" stroke="black" points="578.67,-61.14 583.19,-51.56 573.68,-56.23 578.67,-61.14"/>
</g>
<!-- GoogleContacts -->
<g id="node4" class="node">
<title>GoogleContacts</title>
<ellipse fill="palegreen" stroke="black" cx="445" cy="-34" rx="87.18" ry="18"/>
<text text-anchor="middle" x="445" y="-30.3" font-family="Times,serif" font-size="14.00">Google Contacts</text>
</g>
<!-- VCard&#45;&gt;GoogleContacts -->
<g id="edge3" class="edge">
<title>VCard&#45;&gt;GoogleContacts</title>
<path fill="none" stroke="black" d="M334.51,-98.41C356.3,-85.91 385.35,-69.23 408.2,-56.12"/>
<polygon fill="black" stroke="black" points="410.01,-59.12 416.94,-51.1 406.52,-53.05 410.01,-59.12"/>
</g>
<!-- AppleContacts -->
<g id="node5" class="node">
<title>AppleContacts</title>
<ellipse fill="palegreen" stroke="black" cx="259" cy="-34" rx="81.49" ry="18"/>
<text text-anchor="middle" x="259" y="-30.3" font-family="Times,serif" font-size="14.00">Apple Contacts</text>
</g>
<!-- VCard&#45;&gt;AppleContacts -->
<g id="edge5" class="edge">
<title>VCard&#45;&gt;AppleContacts</title>
<path fill="none" stroke="black" d="M293.23,-98.41C287.26,-87.35 279.53,-73.02 272.92,-60.79"/>
<polygon fill="black" stroke="black" points="275.97,-59.06 268.14,-51.92 269.81,-62.39 275.97,-59.06"/>
</g>
<!-- ebdb -->
<g id="node6" class="node">
<title>ebdb</title>
<ellipse fill="palegreen" stroke="black" cx="88" cy="-34" rx="72.29" ry="18"/>
<text text-anchor="middle" x="88" y="-30.3" font-family="Times,serif" font-size="14.00">Emacs EBDB</text>
</g>
<!-- VCard&#45;&gt;ebdb -->
<g id="edge7" class="edge">
<title>VCard&#45;&gt;ebdb</title>
<path fill="none" stroke="black" d="M263.34,-109.73C236.16,-104.33 199.61,-95.58 169,-83 151.97,-76 134.25,-65.87 119.74,-56.72"/>
<polygon fill="black" stroke="black" points="121.46,-53.66 111.15,-51.18 117.66,-59.54 121.46,-53.66"/>
</g>
<!-- VCardPlus -->
<g id="node2" class="node">
<title>VCardPlus</title>
<polygon fill="#d9d9d9" stroke="black" points="461.5,-144 382.5,-144 382.5,-91 461.5,-91 461.5,-144"/>
<text text-anchor="middle" x="422" y="-128.8" font-family="Times,serif" font-size="14.00">Plus</text>
<text text-anchor="middle" x="422" y="-113.8" font-family="Times,serif" font-size="14.00">LinkedIn</text>
<text text-anchor="middle" x="422" y="-98.8" font-family="Times,serif" font-size="14.00">VCard</text>
</g>
<!-- VCardPlus&#45;&gt;Outlook -->
<g id="edge2" class="edge">
<title>VCardPlus&#45;&gt;Outlook</title>
<path fill="none" stroke="red" d="M461.68,-109.83C485.63,-104.73 516.21,-96.27 541,-83 552.99,-76.58 564.68,-67.22 574.24,-58.47"/>
<polygon fill="red" stroke="red" points="576.91,-60.76 581.74,-51.34 572.08,-55.69 576.91,-60.76"/>
</g>
<!-- VCardPlus&#45;&gt;GoogleContacts -->
<g id="edge4" class="edge">
<title>VCardPlus&#45;&gt;GoogleContacts</title>
<path fill="none" stroke="red" d="M429.28,-90.71C431.86,-81.56 434.77,-71.25 437.38,-62"/>
<polygon fill="red" stroke="red" points="440.82,-62.71 440.16,-52.13 434.08,-60.81 440.82,-62.71"/>
</g>
<!-- VCardPlus&#45;&gt;AppleContacts -->
<g id="edge6" class="edge">
<title>VCardPlus&#45;&gt;AppleContacts</title>
<path fill="none" stroke="red" d="M382.39,-98.85C371.51,-93.85 359.75,-88.32 349,-83 331.76,-74.46 312.94,-64.52 296.98,-55.9"/>
<polygon fill="red" stroke="red" points="298.41,-52.7 287.95,-51.01 295.08,-58.85 298.41,-52.7"/>
</g>
<!-- VCardPlus&#45;&gt;ebdb -->
<g id="edge8" class="edge">
<title>VCardPlus&#45;&gt;ebdb</title>
<path fill="none" stroke="red" d="M382.26,-99.65C372.52,-96.19 362.02,-93 352,-91 312.08,-83.05 208.01,-94.61 169,-83 150.71,-77.55 132.25,-67.09 117.58,-57.32"/>
<polygon fill="red" stroke="red" points="119.2,-54.18 108.98,-51.38 115.22,-59.94 119.2,-54.18"/>
</g>
</g>
</svg>
